<svg width="24" height="24" viewBox="0 0 24 24" fill="currentColor" xmlns="http://www.w3.org/2000/svg">
<g id="react-icons/BiCalendar">
<path id="Vector" d="M8 11H9.7V12.7H8V11ZM8 14.4H9.7V16.1H8V14.4ZM11.4 11H13.1V12.7H11.4V11ZM11.4 14.4H13.1V16.1H11.4V14.4ZM14.8 11H16.5V12.7H14.8V11ZM14.8 14.4H16.5V16.1H14.8V14.4Z" fill="#757575"/>
<path id="Vector_2" d="M6.6 20H17.8C18.6824 20 19.4 19.2824 19.4 18.4V7.2C19.4 6.3176 18.6824 5.6 17.8 5.6H16.2V4H14.6V5.6H9.8V4H8.2V5.6H6.6C5.7176 5.6 5 6.3176 5 7.2V18.4C5 19.2824 5.7176 20 6.6 20ZM17.8 8.8L17.8008 18.4H6.6V8.8H17.8Z" fill="currentColor"/>
</g>
</svg>
