<svg width="24" height="24" viewBox="0 0 24 24" fill="currentColor" xmlns="http://www.w3.org/2000/svg">
<g id="react-icons/GiThreeFriends">
<path id="Vector" d="M16.6822 4C17.3335 4 17.9144 4.66152 17.9144 5.55011C17.9144 6.44188 17.3335 7.10023 16.6822 7.10023C16.0309 7.10023 15.45 6.44188 15.45 5.55011C15.45 4.66152 16.0309 4 16.6822 4ZM12.0033 4C12.6511 4 13.2355 4.66152 13.2355 5.55011C13.2355 6.44188 12.6511 7.10023 12.0033 7.10023C11.352 7.10023 10.7676 6.44188 10.7676 5.55011C10.7676 4.66152 11.352 4 12.0033 4ZM7.32096 4C7.97227 4 8.55316 4.66152 8.55316 5.55011C8.55316 6.44188 7.97227 7.10023 7.32096 7.10023C6.66965 7.10023 6.08558 6.44188 6.08558 5.55011C6.08558 4.66152 6.66965 4 7.32096 4ZM12.0033 7.83955C14.2565 7.90996 16.1576 7.90996 18.439 7.98742C19.5268 8.61408 20.0303 11.8249 19.9986 12.9409L19.379 13.564C19.1079 12.0572 18.7664 10.047 18.1996 9.59985V12.6839L18.3439 19.1512H17.5623L16.9744 12.6487H16.3407L15.7528 19.1512H14.9677L15.1155 12.6839L14.8339 9.56816H13.8024L13.5489 12.6733L13.6967 19.1406H12.9117L12.3202 12.6381H11.6865L11.095 19.1406H10.3135L10.4613 12.6733L10.2043 9.56816H9.17279L8.89114 12.6839L9.039 19.1512H8.25391L7.66598 12.6487H7.03227L6.43764 19.1512H5.65607L5.80394 12.6839V9.59985C5.2336 10.047 4.89211 12.0572 4.62102 13.564L4.0014 12.9409C3.96971 11.8249 4.47668 8.61408 5.56102 7.98742C7.84905 7.90996 9.75016 7.90996 12.0033 7.83955Z" fill="currentColor"/>
</g>
</svg>
