<svg width="24" height="24" viewBox="0 0 24 24" fill="currentColor" xmlns="http://www.w3.org/2000/svg">
<g id="react-icons/IoNotifications">
<path id="Vector" d="M18.4374 15.0468C18.3781 14.9754 18.3199 14.9039 18.2628 14.835C17.4771 13.8846 17.0017 13.3111 17.0017 10.6207C17.0017 9.22786 16.6685 8.085 16.0117 7.22786C15.5274 6.59464 14.8728 6.11429 14.0099 5.75929C13.9988 5.75311 13.9889 5.74501 13.9806 5.73536C13.6703 4.69607 12.821 4 11.8631 4C10.9053 4 10.0564 4.69607 9.74599 5.73429C9.73771 5.74358 9.72793 5.75143 9.71707 5.7575C7.70349 6.58643 6.72492 8.17679 6.72492 10.6196C6.72492 13.3111 6.25028 13.8846 5.46385 14.8339C5.40671 14.9029 5.34849 14.9729 5.28921 15.0457C5.13607 15.2304 5.03904 15.4551 5.00961 15.6932C4.98018 15.9313 5.01957 16.1729 5.12314 16.3893C5.34349 16.8536 5.81314 17.1418 6.34921 17.1418H17.381C17.9146 17.1418 18.381 16.8539 18.6021 16.3918C18.7061 16.1753 18.7458 15.9336 18.7167 15.6952C18.6875 15.4568 18.5906 15.2318 18.4374 15.0468ZM11.8631 20C12.3792 19.9996 12.8856 19.8595 13.3285 19.5946C13.7714 19.3297 14.1343 18.9498 14.3789 18.4954C14.3904 18.4736 14.3961 18.4492 14.3954 18.4246C14.3947 18.3999 14.3876 18.3759 14.3749 18.3548C14.3622 18.3337 14.3442 18.3162 14.3227 18.3041C14.3013 18.292 14.2771 18.2857 14.2524 18.2857H9.47457C9.4499 18.2856 9.42562 18.2919 9.40411 18.304C9.38261 18.3161 9.36459 18.3335 9.35182 18.3546C9.33906 18.3758 9.33197 18.3998 9.33127 18.4245C9.33056 18.4491 9.33625 18.4735 9.34778 18.4954C9.59226 18.9498 9.95516 19.3296 10.398 19.5945C10.8408 19.8594 11.3471 19.9995 11.8631 20Z" fill="currentColor"/>
</g>
</svg>
