<svg width="36" height="36" viewBox="0 0 36 36" fill="none" xmlns="http://www.w3.org/2000/svg">
<g id="icons">
<rect x="0.5" y="0.5" width="35" height="35" rx="17.5" stroke="#01579B"/>
<path id="Vector" d="M26.4088 21.5239V18.9837H28.95V17.0793H26.4088V14.5391H24.5044V17.0793H21.9642V18.9837H24.5044V21.5239H26.4088ZM14.3499 14.4699C15.5387 14.4699 16.3393 14.9777 16.7947 15.41L18.6014 13.6578C17.5018 12.6295 16.0675 12 14.3499 12C10.8476 11.999 8 14.8445 8 18.3499C8 21.8554 10.8476 24.7009 14.3499 24.7009C18.0149 24.7009 20.4481 22.123 20.4481 18.4968C20.4481 17.9691 20.3809 17.5945 20.2875 17.1958H14.3468V19.5629H17.8428C17.6771 20.5607 16.7821 22.2447 14.3499 22.2447C12.2483 22.2447 10.5339 20.4977 10.5339 18.3583C10.5339 16.2158 12.2483 14.4699 14.3499 14.4699Z" fill="#01579B"/>
</g>
</svg>
