<svg width="235" height="70" viewBox="0 0 235 70" fill="none" xmlns="http://www.w3.org/2000/svg">
<path d="M34.9795 0H35.6758L39.2393 0.0819193L41.2873 0.450556L41.6969 0.573435L41.7788 0.737273L41.3692 0.860152V1.02399L41.7788 1.26975L42.7619 1.55647L42.6799 1.7203L42.1475 2.04798L41.8198 2.25278L41.4921 2.58046L41.2873 2.66238L41.0415 2.49854L40.9596 2.3347L40.7139 2.25278L40.591 2.1299H40.0176L39.9356 2.29374L40.1814 2.70334L40.591 2.86717L40.9187 3.03101L40.8368 3.19485L40.6729 3.27677L40.632 3.35869H41.7379L42.3523 3.52253H42.6799L42.598 3.03101L42.8028 2.99005L43.1714 3.15389L43.2534 3.23581L43.2943 3.15389V2.86717L43.3762 2.78525L44.2774 2.58046L44.605 2.41662L45.0556 2.3347L45.5881 2.29374L45.9157 2.17086H46.2434L46.694 2.29374L46.9397 2.45758V3.15389L47.1036 3.44061L47.677 3.80925L48.8648 4.2598L49.4383 4.50556L49.8069 4.79228L49.9707 4.99707L50.2984 5.57051L50.5851 6.22586L50.6671 6.75834L50.5442 7.12698L50.9128 7.08602L51.1586 7.29081L51.4863 7.94617L51.732 8.5196L51.8139 8.9292V9.37975L51.6501 9.62551L51.4453 9.74839L51.0767 9.87127L51.0357 9.91223V10.1989L51.1995 10.8133L51.4043 11.3458L51.732 11.8783V12.4517L51.8549 12.9432L52.1826 13.5986L52.5102 14.0082L52.8379 14.213L53.4114 14.4997L53.78 14.8683L54.1077 15.0322L54.2715 14.6226L54.5173 13.8444L54.9678 12.7794L55.2136 12.2879L55.4593 12.0831H55.9509L56.3604 12.206L56.5652 12.165L56.8929 11.8783L57.1387 11.5916L57.2206 11.5506L57.5892 11.5097H58.7771L59.0638 11.4277H59.2276L59.0638 11.0181L58.7771 10.5676L58.4494 10.1989L58.1627 9.87127L57.9169 9.62551V9.37975L58.0398 9.17496L58.2446 9.134L58.8999 9.50263L59.4734 9.95319L60.0878 10.5266L61.1937 11.6325L61.4804 11.9602L61.931 12.4517L62.2996 12.9023L62.8321 13.5576L63.4055 14.3359L63.897 15.0322L64.2657 15.5647L64.6752 16.1791L65.3716 17.3259L65.8221 18.227L66.4365 19.9064L66.8461 20.7665L67.2147 21.4219L67.5834 22.1182L67.952 22.9783L67.993 23.2241L67.5834 23.5927L67.4605 23.7566V24.1662L67.0919 24.6167L66.7232 24.9444L66.4775 25.0263L66.5184 25.1902L66.8052 25.5588L67.0509 26.2142L67.2557 26.9514V27.402L67.1738 27.5658L67.0099 27.6477L66.5184 27.6068L66.0269 27.4839H65.7812L65.8631 28.2212V28.9175L65.8221 29.6548L65.945 30.0644L66.1498 30.433L66.6003 30.9655V31.0474L66.8871 31.0884L67.2147 30.8426L67.4195 30.3101L67.7063 29.0813L67.952 28.385L68.1978 27.9345L68.4435 27.6477L68.6483 27.6887L68.976 28.0983L69.2627 28.6717L69.6314 30.2692L69.8771 31.7028L70 32.5629V33.6688L69.5904 33.464L69.4675 33.3411L69.3447 32.8906L69.0989 31.498L68.9351 31.0884L68.5664 31.1703L68.0339 31.498L67.8701 31.7028L67.5424 31.8256L67.1328 31.9075L66.7232 31.8666L66.5594 32.0714L66.1498 33.0135L65.986 33.4231L65.904 33.7917L65.8631 34.3651L65.5764 34.9386L65.2077 35.3482L64.7981 36.0035L64.4705 36.6179L64.0199 37.6829L63.8561 38.2973L63.8151 38.7478L63.938 39.3622V39.7308L63.6103 41.3283L63.5693 41.615V42.3113L63.6922 42.8028L64.0199 43.4582L64.2657 43.8678L64.5114 44.646L64.7572 45.0556L65.1258 45.3013L65.3306 45.3833L65.6583 45.3423L66.3546 45.0556L67.0099 44.687L67.5424 44.2774L67.7882 44.2364L67.952 44.3183L68.1978 44.7279L68.2797 44.9737L68.2387 45.4652L67.9111 46.7759L67.7063 47.636L67.3786 48.4962L67.0099 49.3154L66.3136 50.8309L65.945 51.6091L65.4125 52.5512L65.0029 53.2885L64.5114 54.0257L63.9789 54.763L63.5693 55.3774L63.1188 55.9509L62.5863 56.6062L62.0538 57.3025L61.5214 57.9169L60.9479 58.5313L60.6612 58.859L58.4903 61.0298L58.0807 61.3575L57.5073 61.8081L57.0977 62.1767L56.4014 62.7092L55.6232 63.2826L55.0907 63.6922L54.1077 64.3476L52.9608 65.0029L51.9368 65.6173L50.749 66.2317L49.8069 66.6823L48.5781 67.2147L45.9157 68.2797L45.3013 68.4845L43.8268 68.8531L42.2294 69.1808L41.3283 69.3037L41.1644 69.1808L41.2054 68.8941L41.2463 68.8531L41.2873 68.3207L41.5331 67.9111L42.1065 67.0919L42.3932 66.7642L42.9666 66.3546L43.4991 65.945L43.7039 65.8221H43.9906L44.1135 65.8631L44.646 65.7812L45.0146 65.5354L45.0556 65.2896L44.9737 64.8801L45.0146 64.6752L46.0796 64.5524L46.7349 64.0609L46.9807 63.7741L47.4722 63.1188L48.1276 62.4634L48.5781 62.0948L48.8648 61.7262L48.7829 61.5623L48.742 61.3985L48.9468 61.1937L49.1925 60.907L49.684 60.5383L50.0117 60.2516L50.8309 59.7601L51.732 59.3505L52.1416 59.1867H52.2235L52.3054 59.0228L52.715 58.4084L53.2885 57.2616L53.4523 56.811L53.6161 55.9918L53.9029 55.4184L54.3944 54.763L54.8859 54.1896L55.1726 53.9029L55.5822 53.3294L55.828 52.715L55.8689 52.5512L55.6641 52.5102L55.7461 52.3874H55.828L55.7461 52.2235L55.1726 51.8549L54.3534 51.4043L53.9438 51.1995L53.6571 51.1176L52.9608 51.1586H52.3464L52.0187 51.0767L51.4863 50.708L50.9538 50.5442H50.5442L50.1346 50.4213L49.8479 50.2984L49.684 50.0936L49.5611 49.684V49.3973L49.4383 49.1925L49.1106 48.7829L48.7829 48.1276L48.3733 47.7999L47.718 47.4722L47.5132 47.3903H46.8988L46.4892 47.4312L46.1615 47.3493L45.5881 46.9397L45.0556 46.4482L44.3593 45.9157L43.7039 45.5061L43.0076 45.0146L42.8847 44.9327L42.639 44.9737L42.3113 45.3013L42.1065 45.3423L41.3692 45.1375L41.1644 45.0965L41.0415 45.1785L40.4681 45.0965L40.2633 44.9327L40.0585 44.646L39.8947 44.5641H39.4851L39.4032 44.687L38.8297 44.7279L38.6249 44.605L38.584 44.4002L37.8877 44.4412V44.5231H37.8057L37.7648 44.646L37.3142 44.687L37.0685 44.8508H36.7408L36.536 45.1785L36.2083 45.8338L36.0445 45.9977L35.553 46.3253L35.3482 46.2025L35.1843 46.0386L34.9386 45.9157H34.2422L34.2013 46.0796L34.6518 46.1205L34.7747 46.4482L35.1843 47.2264L35.2662 47.8408L35.3072 48.2504L35.4301 48.5372V48.8648L35.0614 49.2744L34.7747 49.6021L34.0374 50.3394L33.7507 50.7899L33.464 51.4043V51.6501L33.505 51.773L33.6688 51.8549L33.8736 52.1006V52.4693L33.505 52.8789L33.2183 53.2066L33.3411 53.4933L33.5869 53.78L33.9146 54.0667L34.2832 54.4763L34.7747 55.2136L35.1843 55.9509L36.2493 57.4254L36.536 57.7531L37.4781 58.2446L38.2563 58.6542L38.7888 59.0638L39.1164 59.4324L39.1984 59.5963L39.2393 59.9649L39.1984 60.7022L39.1574 60.9889L39.1164 62.2996L39.0345 62.6273L38.8707 63.1597L38.8297 63.8151V64.1837L38.8707 64.5114V65.0848L38.6249 65.5354L38.4611 65.8221L38.3792 66.1088V66.969L38.502 67.2967L38.8707 67.5015L38.8297 67.7882L38.6659 68.1978L38.4611 68.6074L38.502 68.8531L38.7478 69.1808L39.1164 69.4675V69.6314L38.4611 69.7542L37.3552 69.8771L35.8806 69.959L34.7747 70H33.1363L31.7847 69.9181L30.7197 69.7952L29.2042 69.5494L27.7297 69.2627L25.8455 68.8122L24.5758 68.4435L23.1422 67.952L21.9544 67.4605L20.9304 67.0099L19.7835 66.4775L18.1861 65.6992L17.3259 65.2487L16.3839 64.6752L15.2779 63.938L14.5816 63.4465L13.3528 62.5044L12.6565 61.931L12.206 61.5623L11.5916 61.0298L10.9362 60.4154L9.91223 59.3915L9.62551 59.0638L8.9292 58.3675L8.56056 57.9169L8.11001 57.4254L7.65945 56.852L7.29081 56.4014L6.71738 55.6232L6.10298 54.7221L5.57051 53.9029L4.95611 52.9198L4.42364 52.0187L3.93212 51.1586L3.27677 49.8069L2.82621 48.742L2.3347 47.5132L2.00702 46.6121L1.51551 45.0146L1.06495 43.2943L0.696314 41.5331L0.491516 40.3862L0.245758 38.6249L0.0819193 36.9046L0 35.0205V32.6039L0.122879 31.1293L0.409596 29.2861L0.737273 27.6477L1.35167 25.1902L1.96606 23.1831L2.5395 21.6676L3.27677 19.9473L3.93212 18.6366L4.38268 17.8584L4.79228 17.244L5.07899 16.7934L6.63546 14.4587L7.08602 13.8034L7.65945 13.0661L8.27384 12.2469L8.7244 11.7554L9.09304 11.3868L9.42071 11.1001L9.83031 10.7314L11.2639 9.29784L11.6735 9.01112H12.0421L12.124 9.21592L11.8783 9.62551L11.4687 9.95319L10.8953 10.4037L10.3628 10.7724L9.91223 11.0181L9.58455 11.3868L9.50263 11.7554L9.29784 12.124L8.97016 12.5746L8.68344 12.8613L8.64248 12.9842L9.01112 13.0661L9.46167 13.3119V13.4348L8.97016 13.8034L8.5196 14.213L8.19193 14.4997L7.74137 14.8683L7.33177 15.237L6.02107 16.5477L5.57051 17.203L4.91516 18.1861L4.8742 18.309L5.07899 18.1861L5.44763 17.7355L5.77531 17.3259L6.47162 16.6296L6.7993 16.3429L7.16793 16.0152L7.61849 15.6466L8.23288 15.0731L8.68344 14.7045L9.21592 14.254L9.70743 13.9263L9.95319 13.7215L10.3218 13.2709L10.6495 12.8204L10.9362 12.3288L11.182 12.0421L11.5097 11.8373H11.5916L11.5506 12.206L11.9602 12.124L12.4108 11.9193L12.7384 11.7554L12.8613 11.3868L13.0252 11.0591L13.23 11.1001L13.8853 11.3868L14.6226 11.7145L14.9093 11.9602L14.9912 12.165L15.0731 12.5336L15.196 12.8613L15.2779 13.3119H15.3599L15.4008 13.0661L15.5237 12.9023H15.7285L15.7695 12.9432L15.7285 13.3119L15.6875 13.5167V14.254L15.7695 14.6226V15.6875L15.6875 15.9333V16.5886L15.8923 17.1211V17.4488L15.8514 17.5307H15.7695V17.6126H15.6875L15.6466 18.1451L15.7285 18.4728L16.0971 18.6776L16.4248 19.0462L16.6706 19.5377L16.7115 19.7016V20.275L16.5886 20.5208L16.4658 20.4798L16.4248 19.7835L16.3019 19.4558L16.0152 19.0872L15.7285 18.8414L15.5237 18.7595L15.1141 18.8005L15.237 19.1691L15.4827 19.5377L16.0152 20.0702L15.9743 20.275L15.7285 20.9713L15.4418 22.0363L15.1141 22.8964L14.5816 24.1252L14.3359 25.0263L14.0901 26.2142V27.2382L14.2949 28.0983L14.4997 29.409L14.6635 30.0644L14.8683 30.2692L15.5647 30.7197L15.8104 30.9655L16.0152 31.7437L16.261 32.7267L16.5477 33.5459L16.9982 34.2832L16.9163 34.5699L16.7525 34.6928L16.8344 34.9386L17.1621 35.2662L17.4078 35.7578L17.7765 36.8637L18.1042 37.4781L18.3909 37.56L18.7595 37.6419L18.4728 36.8637L18.3499 36.4541L18.0632 35.7168L17.8994 35.0614L17.6946 34.7747L17.4488 34.0374L17.1621 33.5869L16.9573 33.4231L16.9163 33.3411V32.6039L16.9982 32.2352L17.1621 32.2762L17.4488 32.6448L17.7355 33.3411L17.9403 33.9146L18.268 34.488L18.8005 35.3072L19.1691 35.9626L19.6197 36.6998L20.0702 37.2733L20.3979 37.7238L20.6846 38.2973L20.7665 38.7068V39.608L20.8894 39.8128L21.34 40.1814L22.0363 40.7139L22.7326 41.1644L23.5108 41.615L24.4529 42.0655L24.9854 42.1884H25.313L25.8455 42.0246L26.2551 42.0655L26.5828 42.2294L26.9924 42.5571L27.4429 42.9666L27.8116 43.2124L27.9754 43.3353L28.3441 43.3762L28.8356 43.4991L29.9005 43.8678L30.2692 44.1545L30.8016 44.8918L31.0474 45.2604L31.6618 45.8338L32.0714 46.2434L32.3991 46.2844L33.0954 46.4073L33.3411 46.5711L33.464 46.694L33.7507 46.5301L33.9146 46.1615L33.9965 45.9157L33.1363 45.9977H32.6039L32.1943 45.3013L31.9485 44.9737L32.0714 43.9906L32.1533 43.4991V42.8847L32.0714 42.598L31.7847 42.3932L31.5389 42.3523L29.8596 42.3113L29.5319 42.2294L29.4909 42.1475V41.615L29.7367 40.7548L30.1053 40.0995L30.1463 39.6899L30.2282 39.4851L30.5149 39.1164L30.5559 38.9936L29.409 39.0345L29.0404 39.1164L28.7946 39.2803L28.2212 40.3862L28.1393 40.4681L27.8116 40.591H27.361L26.9514 40.6729L26.6647 40.8777H26.419L26.0094 40.632L25.5998 40.2633L25.395 40.0176L25.0673 39.4441L24.9035 39.0755L24.7806 38.6249V37.6009L24.9444 36.7408L25.1082 36.0035L25.1492 35.3482L25.313 34.9386L25.5998 34.5699L25.9274 34.3242L26.9105 33.9146L27.2382 33.8327H27.7297L28.5898 33.9965L29.2452 34.2422L29.3271 33.9965L29.5319 33.6688L29.7776 33.464L30.1463 33.3821H30.6378L31.2522 33.4231L31.9075 33.5869L32.5629 33.6688L32.8906 33.8327L33.0544 34.0374L33.2183 34.447L33.3002 34.9795L33.3821 35.5939L33.6279 36.1674L33.7098 36.3722L34.2013 36.3312L34.4061 36.1264L34.3651 35.512L34.0374 33.4231V32.7677L34.2422 32.44L34.6109 32.1123L35.6349 31.416L36.2493 30.9245L36.7817 30.5559L37.3552 30.2282L37.4371 30.1463L37.3552 29.7776L37.1913 29.3271L37.2323 29.0404L37.4371 28.7946L37.7648 28.5489L38.1334 27.8525L38.4201 27.4839L38.7068 27.1562L38.9116 26.7876L39.1574 26.5009L39.6489 26.2551L40.0585 26.2142L40.632 25.9684L40.7958 25.8046L40.7548 25.6407L40.7139 25.4359L41.1235 24.8625L41.3692 24.6577L41.7788 24.4119L42.3932 24.1662L43.1305 23.8385L43.3762 23.7566L43.4172 23.7975V24.7806L44.0726 24.6167L44.1545 24.371L44.3183 24.2891H45.2604L45.7929 23.9204L46.2025 23.6337H46.2844L46.3663 23.4699L46.4073 23.347L46.3253 23.2241L46.1615 23.2651L46.0386 23.4699L45.9157 23.5518H45.7109L45.5881 23.5108L45.3423 23.5927H45.0146L44.646 23.1012L44.3183 22.8555L44.2364 22.7326L44.1954 22.4049L44.2364 22.1182V21.9134L44.4412 21.6676V21.34L44.3183 21.258H43.4172L43.1714 21.34L42.7619 21.4219L42.1884 21.7905L41.9017 21.9544H41.8198L41.8607 21.7905L42.5161 21.1352L42.9666 20.9304L43.2534 20.8075L43.5401 20.5208L43.9497 20.316H44.5231L45.0146 20.4389L45.2194 20.6437L45.3423 20.8075L45.5471 20.7665L45.67 20.5617L46.9397 20.4798L47.3084 20.275L47.5132 20.1112L47.9637 19.9883L48.2914 20.0702L48.3733 20.1931V20.4798L48.2095 20.8484L48.0456 20.9713H47.9637L47.8818 21.1761L47.636 21.6267L47.3493 21.9544V22.2001L47.5951 22.323H47.8818L48.2095 22.282L48.2914 22.4459L48.8239 22.5688L49.1106 22.8145L49.3154 22.9374L49.684 22.8555L49.725 22.7326H49.3973L49.2335 22.6097L49.2744 22.4049L49.5202 22.2001H49.6021L49.4383 21.7496L49.3154 21.6267L48.9877 21.6676L48.4143 21.4219L48.3733 21.34V21.0123L48.6191 20.316V19.4558L48.8648 19.251L48.701 18.9233L48.3324 18.5138L48.0456 18.1861L47.677 17.8174L47.3903 17.4898L47.0217 17.1211L46.7349 16.7934L46.6121 16.6706L46.5301 16.4248V15.5237L46.1615 14.7864L45.8748 13.7624L45.8338 13.6805L45.7109 13.7215L45.4242 14.213L45.0146 14.6226L44.687 14.7864H44.1545L43.9087 14.6226L43.7039 14.2949L43.4991 13.8034L43.5401 13.5576L43.663 13.189L43.7039 13.0252L43.4582 12.7384L43.0486 12.5336L42.8438 12.2879L42.7209 12.0012L42.598 11.7964L42.0246 11.6325L41.5331 11.5506L41.1644 11.3049L40.9187 11.1001L40.7958 11.0591L40.7139 11.3049L40.3862 11.9602L40.2633 12.2469V12.5336L40.3452 12.6565V12.9842L40.1404 13.3119L39.7718 13.6805L39.8128 14.1311L39.9766 14.5407L40.0585 14.7864V15.4827L39.9356 15.7695L39.6899 16.0562L39.1574 16.3839L38.9526 16.4658L38.2973 16.5477L38.2153 18.0632L38.0515 18.7185L37.7648 19.251L37.7238 19.292L37.3961 19.251L37.1913 19.0053L36.9046 18.4318L36.7408 18.0632L36.6998 17.8994V17.1211L36.8637 16.6706V16.3019L36.5769 16.1381H35.8806L35.512 15.8923L35.0614 15.5647L34.6518 15.196L34.447 14.9912L34.4061 14.8683L34.0374 14.7455L33.4231 14.4587L32.7677 14.4997L32.6858 14.4178L32.7267 14.0492L32.8087 13.8444V13.4757L32.6039 13.23L32.3171 13.0661L32.2762 13.0252V12.7384L32.5629 12.0831L32.8906 11.6325L33.1363 11.3458L33.464 11.0591L33.7507 10.8133L34.2832 10.4857L34.6518 10.3218L35.0205 10.2399L35.3891 9.91223H35.471L35.512 9.66647L35.7168 9.50263L36.1674 9.37975L36.8637 9.33879L37.0685 9.29784L37.1094 9.01112V8.64248L36.7408 8.56056L36.5769 8.43768L36.6179 8.27384L36.6998 8.23288L37.0685 8.27384L37.4781 8.47864L37.7648 8.60152L38.0105 8.68344L37.9696 9.09304L37.8057 9.33879L37.6009 9.58455L37.4781 9.91223V10.0761L38.0515 10.2399L38.2153 9.78935L38.3382 9.70743L38.7068 9.74839L38.9526 9.91223L39.0755 10.0761V10.158H39.4032L39.6899 10.1989L39.526 9.91223L39.1984 9.42071L38.7478 8.97016L38.4201 8.7244L38.2153 8.5196L38.2563 8.3148L38.7478 8.06905L38.8707 7.90521H39.9766L40.2633 7.65945L40.4681 7.33177L40.4272 7.12698L40.3452 6.96314L40.55 6.7993L40.9596 6.63546L41.0006 6.55354V6.22586L40.3862 6.14394L40.4681 5.98011L40.8368 5.81627H41.1644L41.4921 5.98011L41.6559 6.02107H42.3113L42.639 6.1849L43.0486 6.7993L43.4991 7.24985L43.9087 7.57753L44.1135 7.82329L44.1954 8.15097L44.1545 8.35576L43.7449 8.56056L43.5401 8.76536L43.2943 8.9292L43.0895 9.29784L42.7209 9.46167L42.598 9.50263H41.615L41.3283 9.46167L41.2873 9.83031H41.7379L42.2703 9.78935L42.8028 9.95319L43.0076 10.1989L43.4172 10.8133L43.4991 10.9772L43.7449 11.141L44.0316 11.3868L44.3593 11.5916L44.605 11.8783L44.7689 11.8373L44.8508 12.0421L44.9737 12.0831L45.1785 12.2879L45.3833 12.3698L45.3423 12.165L45.2194 11.7964L45.0556 11.3868V11.2639L45.3833 11.3049L45.7519 11.5097H45.9977L46.2844 11.3868L46.2434 11.182L45.629 10.2809L45.5471 10.158V9.54359L45.4652 9.42071L45.5061 9.25688L45.5881 9.21592H45.9977L46.3253 9.46167L46.4892 9.66647L46.694 10.3218L46.7759 10.4447L46.9397 10.3628L47.1855 10.0351L47.5541 9.87127L47.636 9.78935L47.5951 9.62551L47.1036 9.17496L46.7759 8.80632L46.5711 8.60152L45.7929 8.19193L45.8748 7.74137L46.0796 7.33177L46.1615 7.12698L45.7929 6.67642L45.5061 6.43066L45.0556 6.1849L44.7279 6.06202L44.5231 5.77531L44.0726 5.61147L43.9906 5.48859V5.20187L43.8268 4.79228L43.7449 4.34172L43.3353 4.17788L42.8438 4.055L42.0655 3.93212H41.3283L40.8368 3.97308L40.9187 3.56349L40.3043 3.60445H40.0995L39.9356 3.76829L39.526 3.8502L39.2803 4.13692L39.0755 4.30076L38.9936 4.71036L38.9116 4.91516V5.11995L39.0755 5.24283L39.4851 5.40667L39.8128 5.61147L39.8537 5.65243V5.89819L39.567 6.47162L39.3212 6.7993L38.9936 6.96314L38.584 7.24985L38.2973 7.41369L38.1334 7.37273L37.9286 7.04506L38.0515 6.67642L38.0925 6.43066L37.7648 6.30778L37.3961 6.14394L37.2733 6.02107L37.3142 5.73435L37.3961 5.52955V4.2598L37.56 3.89116L37.9286 3.60445L38.0105 3.52253H38.3792L38.6659 3.35869L38.9936 3.31773L39.0755 3.03101L39.0345 2.86717H38.8297L38.6659 2.99005L38.4201 2.94909L38.2973 3.07197L38.1334 3.11293L38.0515 3.23581H37.9696V3.31773L37.8057 3.23581L37.7238 3.11293H37.1913L37.0275 2.94909H36.5769L36.3722 3.07197L36.2083 3.23581L35.8397 3.15389L35.4301 3.39965L35.3891 3.52253L35.553 3.76829L35.9216 3.93212L36.6179 3.97308L36.8227 4.055V4.17788L36.4541 4.42364H36.3722L36.2902 4.6694L36.0854 4.8742L35.9216 4.99707L35.9626 5.16091L36.3312 5.44763L36.4541 5.61147V5.89819L36.2083 6.22586L35.9626 6.34874H35.6758L35.3482 6.10298L35.2662 5.98011L35.3072 5.81627L35.4301 5.65243L35.3891 5.32475L35.0205 5.28379L34.7747 5.44763L34.6928 5.61147L34.6109 5.98011L34.488 6.26682L34.2422 6.3897L34.2013 6.47162H32.9315L32.3171 6.26682L31.9075 5.98011L31.8256 5.73435L31.416 5.61147L30.7607 5.52955H30.6788L30.5968 5.93915L30.1872 6.3897L30.0234 6.34874L29.9005 6.10298L29.5319 5.98011L29.6957 5.73435L29.45 5.77531L29.0404 5.93915H28.7946L28.6308 6.06202L28.3031 6.02107L28.0164 5.81627L28.0573 5.61147L28.0983 5.52955L28.385 5.44763L28.2621 5.24283L28.385 5.20187L28.6717 5.28379L28.9175 5.32475L29.0813 5.24283H29.2861L29.6138 5.48859L29.7776 5.52955L30.1053 5.36571H30.5149L30.6378 5.24283L31.1293 5.32475L31.416 5.07899L31.6618 5.11995L32.1943 5.28379L32.2762 5.44763L32.44 5.48859L32.9725 5.32475L33.0544 5.24283L33.9146 4.95611L33.9965 4.91516V4.6694L33.7917 4.58748L33.5869 4.38268L33.505 4.2598V3.97308L33.7507 3.52253L33.8736 3.35869L33.9555 3.07197L34.2832 2.82621L34.488 2.74429L34.7338 2.70334L34.6518 2.66238H33.9555L33.6279 2.78525L33.3002 2.99005L33.1773 3.03101L33.1363 3.27677L32.8906 3.44061L32.6858 3.39965L32.7267 3.23581L32.8087 3.11293H32.481L32.3171 3.03101L32.2762 2.86717H31.7847L31.6208 2.82621L31.457 2.62142L31.3341 2.5395V1.96606L31.0474 1.9251H30.433L30.392 2.04798L30.1872 1.9251H29.7367L29.3271 2.1299L29.0813 2.29374L28.3031 2.66238L28.0573 2.82621L27.7706 2.94909L27.7297 3.03101H27.6477V3.27677H28.0573L28.4669 3.11293L28.6717 3.15389L29.0404 3.23581L29.3681 3.19485L29.1223 3.48157L28.8356 3.8502L28.7537 4.13692L28.4669 4.34172L28.426 4.50556L28.5079 4.71036L28.4669 4.91516L28.385 5.03803H28.3031V5.11995L28.0983 5.07899L28.0164 4.95611L27.7297 4.8742L27.5658 4.99707L27.361 4.95611L27.1153 4.71036V4.62844L26.0503 4.58748L25.7226 4.50556L25.4769 4.38268L25.2721 4.21884H24.7806L24.1252 4.34172L23.7566 4.50556L22.9783 4.62844H22.6916L22.282 4.79228L21.8315 4.99707L21.5857 4.91516L21.3809 4.71036L21.299 4.58748L20.9713 4.50556L19.4149 4.4646L18.8824 4.34172H18.5138L17.7765 4.75132L17.1211 5.16091L16.4248 5.57051L16.1791 5.61147L16.22 5.44763L16.5477 5.24283L17.1621 4.8742L17.6946 4.4646L18.4318 4.055L19.6197 3.52253L20.8075 2.94909L21.9134 2.49854L22.9783 2.08894L24.6167 1.47455L26.337 0.942071L27.7706 0.573435L28.5489 0.450556L29.6548 0.327677L30.6378 0.163839L31.416 0.0819193H31.8666L31.9075 0.122879H32.8087L34.9795 0ZM38.8297 0.368637L38.6249 0.573435L38.7068 0.778233L39.1164 0.819193L39.2393 0.614394L39.1984 0.409596L38.8297 0.368637ZM33.5869 0.819193L33.1773 0.942071L32.8496 1.18783L32.6039 1.14687L32.2352 0.983031L32.0304 1.02399L32.2352 1.22879L32.8906 1.59743L33.464 1.7203L33.6688 1.76126H34.3651V1.63839H34.447L34.488 1.7203L34.8976 1.76126H35.3482L35.7578 1.63839L35.7987 1.47455L35.6349 1.22879L35.471 1.14687L35.2662 1.18783L34.8157 1.43359L34.488 1.55647H34.2422L34.1194 1.26975L33.9965 0.942071L33.7917 0.819193H33.5869ZM40.0995 0.860152L40.0176 0.901112L40.0585 1.26975L39.8537 1.35167L39.567 1.43359L39.7308 1.63839H39.9356L40.1814 1.26975L40.2633 1.10591L40.4681 1.02399V0.901112L40.0995 0.860152ZM38.0105 1.47455L37.8877 1.59743L37.8467 1.67934H37.6829V1.55647H37.4371L37.2323 1.76126L37.3142 1.9251L37.6419 1.96606L37.6829 2.00702H37.9696L38.1744 1.9251H38.4611L38.7068 2.08894H38.9116L38.8707 1.88414L38.4201 1.55647L38.2153 1.47455H38.0105ZM42.6799 7.33177L42.4342 7.45465L42.2294 7.70041L42.1884 7.94617L42.2294 7.98713H42.598L43.0076 7.82329L43.0486 7.70041L42.9257 7.41369L42.6799 7.33177ZM50.708 7.74137L50.5851 7.94617L50.6261 8.3148L50.8309 8.68344L50.8719 8.7244H51.0767L51.2405 8.43768L51.3224 8.23288L51.2815 7.98713L51.0767 7.78233L50.708 7.74137ZM38.0515 10.4037L38.0925 10.6495L38.4611 11.1001L38.6249 11.141L38.6659 11.0181L38.543 10.7314L38.1334 10.4037H38.0515ZM60.2516 13.9672L60.3745 14.3768L60.6202 14.8683L61.0298 15.196L61.4394 15.4008L61.7671 15.4418L61.9719 15.196L61.931 15.0322L61.6852 14.6635L61.3575 14.3768L60.7841 14.0901L60.4154 13.9672H60.2516ZM65.3716 20.1521L65.2077 20.275L65.2487 20.4389L65.2896 20.5208V20.8075L65.1668 21.2171L64.8801 22.0772L64.7981 22.5688L64.962 22.7736L65.1668 22.8145L65.3306 21.7496L65.5354 20.9713L65.5764 20.6437V20.1931L65.3716 20.1521ZM65.8221 21.8724V22.2001L66.1498 23.5518L66.3136 23.9204L66.4365 24.0023L66.8052 23.9614L66.928 23.8795L66.8871 23.6337L66.5594 23.0603L66.0679 22.0772L65.904 21.8724H65.8221ZM32.44 38.0925L32.0714 38.2973L31.9895 38.4611L32.1123 38.502L32.3171 38.4201L32.5629 38.3792H32.8906L33.464 38.502L34.8157 38.9116L35.3482 39.1984L35.8397 39.567L36.2493 39.8537L36.6589 39.9766L36.8227 39.8947L36.9456 39.6489L36.9046 39.4851L36.4131 39.1984L35.7578 38.8707L35.0614 38.543L34.1194 38.2153L33.464 38.0925H32.44ZM38.4611 39.7718L38.543 39.8947V40.1404L38.2563 40.4681L37.8467 40.6729L37.3961 40.7958V40.8777H38.7888L38.9116 40.7548V40.6729L39.3622 40.7139L39.8537 40.4681L40.0176 40.3452L39.9766 40.2224L39.4851 40.0176L38.8707 39.8128L38.4611 39.7718ZM35.6349 40.4681L35.4301 40.632L35.1843 40.7958V40.8777H35.9216L35.8397 40.6729L35.7168 40.4681H35.6349ZM41.3283 40.6729L41.2463 40.8368L41.3692 40.8777H41.7379L41.8198 40.7958L41.7379 40.7139L41.3283 40.6729Z" fill="#01579B"/>
<path d="M34.9795 0H35.6758L39.2393 0.0819193L41.2873 0.450556L41.6969 0.573435L41.7788 0.737273L41.3692 0.860152V1.02399L41.7788 1.26975L42.7619 1.55647L42.6799 1.7203L42.1475 2.04798L41.8198 2.25278L41.4921 2.58046L41.2873 2.66238L41.0415 2.49854L40.9596 2.3347L40.7139 2.25278L40.591 2.1299H40.0176L39.9356 2.29374L40.1814 2.70334L40.591 2.86717L40.9187 3.03101L40.8368 3.19485L40.6729 3.27677L40.632 3.35869H41.7379L42.3523 3.52253H42.6799L42.598 3.03101L42.8028 2.99005L43.1714 3.15389V3.31773H43.0895V3.39965L42.8847 3.60445H42.7619V3.68637L42.639 3.80925H42.3523V3.93212H41.3283L40.8368 3.97308L40.9187 3.56349L40.3043 3.60445H40.0995L39.9356 3.76829L39.526 3.8502L39.2803 4.13692L39.0755 4.30076L38.9936 4.71036L38.9116 4.91516V5.11995L39.0755 5.24283L39.4851 5.40667L39.8128 5.61147L39.8537 5.65243V5.89819L39.567 6.47162L39.3212 6.7993L38.9936 6.96314L38.584 7.24985L38.2973 7.41369L38.1334 7.37273L37.9286 7.04506L38.0515 6.67642L38.0925 6.43066L37.7648 6.30778L37.3961 6.14394L37.2733 6.02107L37.3142 5.73435L37.3961 5.52955V4.2598L37.56 3.89116L37.9286 3.60445L38.0105 3.52253H38.3792L38.6659 3.35869L38.9936 3.31773L39.0755 3.03101L39.0345 2.86717H38.8297L38.6659 2.99005L38.4201 2.94909L38.2973 3.07197L38.1334 3.11293L38.0515 3.23581H37.9696V3.31773L37.8057 3.23581L37.7238 3.11293H37.1913L37.0275 2.94909H36.5769L36.3722 3.07197L36.2083 3.23581L35.8397 3.15389L35.4301 3.39965L35.3891 3.52253L35.553 3.76829L35.9216 3.93212L36.6179 3.97308L36.8227 4.055V4.17788L36.4541 4.42364H36.3722L36.2902 4.6694L36.0854 4.8742L35.9216 4.99707L35.9626 5.16091L36.3312 5.44763L36.4541 5.61147V5.89819L36.2083 6.22586L35.9626 6.34874H35.6758L35.3482 6.10298L35.2662 5.98011L35.3072 5.81627L35.4301 5.65243L35.3891 5.32475L35.0205 5.28379L34.7747 5.44763L34.6928 5.61147L34.6109 5.98011L34.488 6.26682L34.2422 6.3897L34.2013 6.47162H32.9315L32.3171 6.26682L31.9075 5.98011L31.8256 5.73435L31.416 5.61147L30.7607 5.52955H30.6788L30.5968 5.93915L30.1872 6.3897L30.0234 6.34874L29.9005 6.10298L29.5319 5.98011L29.6957 5.73435L29.45 5.77531L29.0404 5.93915H28.7946L28.6308 6.06202L28.3031 6.02107L28.0164 5.81627L28.0573 5.61147L28.0983 5.52955L28.385 5.44763L28.2621 5.24283L28.385 5.20187L28.6717 5.28379L28.9175 5.32475L29.0813 5.24283H29.2861L29.6138 5.48859L29.7776 5.52955L30.1053 5.36571H30.5149L30.6378 5.24283L31.1293 5.32475L31.416 5.07899L31.6618 5.11995L32.1943 5.28379L32.2762 5.44763L32.44 5.48859L32.9725 5.32475L33.0544 5.24283L33.9146 4.95611L33.9965 4.91516V4.6694L33.7917 4.58748L33.5869 4.38268L33.505 4.2598V3.97308L33.7507 3.52253L33.8736 3.35869L33.9555 3.07197L34.2832 2.82621L34.488 2.74429L34.7338 2.70334L34.6518 2.66238H33.9555L33.6279 2.78525L33.3002 2.99005L33.1773 3.03101L33.1363 3.27677L32.8906 3.44061L32.6858 3.39965L32.7267 3.23581L32.8087 3.11293H32.481L32.3171 3.03101L32.2762 2.86717H31.7847L31.6208 2.82621L31.457 2.62142L31.3341 2.5395V1.96606L31.0474 1.9251H30.433L30.392 2.04798L30.1872 1.9251H29.7367L29.3271 2.1299L29.0813 2.29374L28.3031 2.66238L28.0573 2.82621L27.7706 2.94909L27.7297 3.03101H27.6477V3.27677H28.0573L28.4669 3.11293L28.6717 3.15389L29.0404 3.23581L29.3681 3.19485L29.1223 3.48157L28.8356 3.8502L28.7537 4.13692L28.4669 4.34172L28.426 4.50556L28.5079 4.71036L28.4669 4.91516L28.385 5.03803H28.3031V5.11995L28.0983 5.07899L28.0164 4.95611L27.7297 4.8742L27.5658 4.99707L27.361 4.95611L27.1153 4.71036V4.62844L26.0503 4.58748L25.7226 4.50556L25.4769 4.38268L25.2721 4.21884H24.7806L24.1252 4.34172L23.7566 4.50556L22.9783 4.62844H22.6916L22.282 4.79228L21.8315 4.99707L21.5857 4.91516L21.3809 4.71036L21.299 4.58748L20.9713 4.50556L19.4149 4.4646L18.8824 4.34172H18.5138L17.7765 4.75132L17.1211 5.16091L16.4248 5.57051L16.1791 5.61147L16.22 5.44763L16.5477 5.24283L17.1621 4.8742L17.6946 4.4646L18.4318 4.055L19.6197 3.52253L20.8075 2.94909L21.9134 2.49854L22.9783 2.08894L24.6167 1.47455L26.337 0.942071L27.7706 0.573435L28.5489 0.450556L29.6548 0.327677L30.6378 0.163839L31.416 0.0819193H31.8666L31.9075 0.122879H32.8087L34.9795 0ZM38.8297 0.368637L38.6249 0.573435L38.7068 0.778233L39.1164 0.819193L39.2393 0.614394L39.1984 0.409596L38.8297 0.368637ZM33.5869 0.819193L33.1773 0.942071L32.8496 1.18783L32.6039 1.14687L32.2352 0.983031L32.0304 1.02399L32.2352 1.22879L32.8906 1.59743L33.464 1.7203L33.6688 1.76126H34.3651V1.63839H34.447L34.488 1.7203L34.8976 1.76126H35.3482L35.7578 1.63839L35.7987 1.47455L35.6349 1.22879L35.471 1.14687L35.2662 1.18783L34.8157 1.43359L34.488 1.55647H34.2422L34.1194 1.26975L33.9965 0.942071L33.7917 0.819193H33.5869ZM40.0995 0.860152L40.0176 0.901112L40.0585 1.26975L39.8537 1.35167L39.567 1.43359L39.7308 1.63839H39.9356L40.1814 1.26975L40.2633 1.10591L40.4681 1.02399V0.901112L40.0995 0.860152ZM38.0105 1.47455L37.8877 1.59743L37.8467 1.67934H37.6829V1.55647H37.4371L37.2323 1.76126L37.3142 1.9251L37.6419 1.96606L37.6829 2.00702H37.9696L38.1744 1.9251H38.4611L38.7068 2.08894H38.9116L38.8707 1.88414L38.4201 1.55647L38.2153 1.47455H38.0105Z" fill="#01579B"/>
<path d="M31.416 5.07899L31.6618 5.11995L32.1943 5.28379L32.2762 5.44763L32.44 5.48859L32.7677 5.40667L32.9315 5.44763H32.8496L32.8087 5.61147L32.6039 5.77531H32.3991L32.2352 5.69339L32.0304 5.93915L32.2352 6.06202L32.7267 6.26682V6.34874L32.3991 6.30778L31.9485 6.02107L31.8666 5.93915L31.8256 5.73435L31.416 5.61147L30.7607 5.52955H30.6788L30.5968 5.93915L30.1872 6.3897L30.0234 6.34874L29.9005 6.10298L29.5319 5.98011L29.6957 5.73435L29.45 5.77531L29.0404 5.93915H28.7946L28.6308 6.06202L28.3031 6.02107L28.0164 5.81627L28.0573 5.61147L28.0983 5.52955L28.385 5.44763L28.2621 5.24283L28.385 5.20187L28.6717 5.28379L28.9175 5.32475L29.0813 5.24283H29.2861L29.6138 5.48859L29.7776 5.52955L30.1053 5.36571H30.5149L30.6378 5.24283L31.1293 5.32475L31.416 5.07899Z" fill="#01579B"/>
<path d="M11.6735 9.01112H12.0421L12.124 9.21592L11.8783 9.62551L11.4687 9.95319L10.8953 10.4037L10.3628 10.7724L9.91223 11.0181L9.58455 11.3868L9.50263 11.7554L9.29784 12.124L8.97016 12.5746L8.80632 12.6565L8.88824 12.0831L8.97016 11.8373H8.88824V11.7554L8.7244 11.7964L8.97016 11.5097L9.46167 11.0591L9.78935 10.7724L11.2639 9.29784L11.6735 9.01112Z" fill="#01579B"/>
<path d="M16.9982 32.2352L17.1621 32.2762L17.4488 32.6448L17.7355 33.3411L17.9403 33.9146L18.268 34.488L18.8005 35.3072L19.1691 35.9626L19.6197 36.6998V36.8227L19.4968 36.6998V36.6179L19.3739 36.5769L19.3329 36.495L19.2101 36.4541L19.1281 36.2902V36.1264H19.0462L18.9643 35.9626L18.8824 35.9216L18.8414 35.7578L18.7185 35.6758L18.6776 35.471L18.5547 35.3072L18.3909 34.9795L18.227 34.8566L18.1042 34.6518L18.0632 34.529H17.8994V34.7338L18.0222 34.8976L18.1042 35.4301H17.9813L17.8994 35.0614L17.6946 34.7747L17.4488 34.0374L17.1621 33.5869L16.9573 33.4231L16.9163 33.3411V32.6039L16.9982 32.2352Z" fill="#01579B"/>
<path d="M43.9497 20.316H44.5231L45.0146 20.4389L45.1785 20.5617L45.1375 20.6846L44.7279 20.6027L44.4002 20.5617L44.1545 20.6846L43.8678 20.9713V21.0532L44.0726 21.1352V21.1761L43.4172 21.258L43.1714 21.34L42.7619 21.4219L42.1884 21.7905L41.9017 21.9544H41.8198L41.8607 21.7905L42.5161 21.1352L42.9666 20.9304L43.2534 20.8075L43.5401 20.5208L43.9497 20.316Z" fill="#01579B"/>
<path d="M42.639 2.99005L42.9257 3.03101L43.1714 3.15389V3.31773H43.0895V3.39965L42.8847 3.60445H42.7619V3.68637L42.639 3.80925H42.3523V3.93212H41.3283L40.8368 3.97308L40.8777 3.56349L40.7548 3.48157L40.8368 3.35869H41.7379L42.3523 3.52253H42.6799L42.598 3.03101L42.639 2.99005Z" fill="#01579B"/>
<path d="M19.5377 3.56349H19.6606L19.7016 3.72733H19.6197L19.4968 3.93212L19.2101 4.01404L18.9643 4.21884L18.8005 4.30076L18.4318 4.38268L17.7765 4.75132L17.1211 5.16091L16.4248 5.57051L16.1791 5.61147L16.22 5.44763L16.5477 5.24283L17.1621 4.8742L17.6946 4.4646L18.4318 4.055L19.5377 3.56349Z" fill="#01579B"/>
<path d="M50.8719 7.08602L51.0767 7.20889L51.3224 7.57753L51.691 8.39672L51.8139 8.9292V9.37975L51.6501 9.62551L51.5272 9.70743H51.3224L51.4863 9.25688L51.5272 8.9292L51.5682 8.7244L51.1995 8.60152L51.2815 8.11001L51.1586 7.90521L50.8719 7.70041L50.8309 7.45465L50.6671 7.20889L50.749 7.12698L50.8719 7.08602Z" fill="#01579B"/>
<path d="M15.5647 18.0632L15.6466 18.1451L15.7285 18.4728L16.0971 18.6776L16.4248 19.0462L16.6706 19.5377L16.7115 19.7016V20.275L16.5886 20.5208L16.4658 20.4798L16.4248 19.7835L16.3019 19.4558L16.0152 19.0872L15.7285 18.8414L15.3189 18.7185L15.4418 18.6776L15.4827 18.268L15.5647 18.0632Z" fill="#01579B"/>
<path d="M36.6998 8.23288L37.0685 8.27384L37.4781 8.47864L37.7648 8.60152L38.0105 8.68344L37.9696 9.09304L37.8057 9.33879L37.6419 9.54359H37.56V9.21592L37.6009 9.05208L37.56 8.97016L37.2733 9.01112L37.1504 9.09304L37.1094 8.97016V8.64248L36.7408 8.56056L36.5769 8.43768L36.6179 8.27384L36.6998 8.23288Z" fill="#01579B"/>
<path d="M41.7788 1.31071L42.2294 1.39263L42.7619 1.55647L42.6799 1.7203L42.1475 2.04798L41.8198 2.25278L41.4921 2.58046L41.2873 2.66238L41.0415 2.49854L40.9596 2.41662V2.29374L41.2873 2.3347L41.6969 2.04798L41.9017 1.88414L41.8198 1.67934L41.7788 1.31071Z" fill="#01579B"/>
<path d="M35.9216 5.20187L36.1264 5.28379L36.4131 5.52955L36.4541 5.61147V5.89819L36.2083 6.22586L35.9626 6.34874H35.6758L35.3482 6.10298L35.2662 5.98011L35.3072 5.81627L35.3891 5.69339L35.553 5.73435L35.6349 6.10298H35.7987L35.8397 6.1849L36.0035 6.14394L35.8806 5.93915L35.9216 5.20187Z" fill="#01579B"/>
<path d="M34.3242 46.1615H34.488L34.5699 46.4482L34.9795 47.2264L35.0614 47.8408L35.1024 48.2504L35.2253 48.5372V48.8648L34.9386 49.1925H34.8566L34.8976 48.9877V48.3324L34.9386 48.0047L34.8566 47.9637L34.8157 47.5132L34.6928 47.1445L34.6518 46.7759L34.529 46.7349L34.4061 46.5301L34.3242 46.3663V46.1615Z" fill="#01579B"/>
<path d="M39.8128 14.3359L39.9356 14.4178L40.0585 14.7864V15.4827L39.9356 15.7695L39.6899 16.0562L39.1574 16.3839L38.9526 16.4658H38.543L38.7068 16.3839L39.2803 16.1791L39.4851 16.0562L39.6489 15.7695L39.7308 15.2779L39.7718 14.8274V14.4997L39.8128 14.3359Z" fill="#01579B"/>
<path d="M45.5881 9.21592H45.9977L46.3253 9.46167L46.4892 9.66647L46.694 10.3218V10.4037H46.6121V10.2809H46.5301L46.2844 9.99415L46.0796 9.87127L45.9567 9.62551L45.7519 9.54359H45.5471L45.4652 9.42071L45.5061 9.25688L45.5881 9.21592Z" fill="#01579B"/>
<path d="M67.8701 31.3751H68.1159L67.8701 31.7028L67.5424 31.8256L67.1328 31.9075L66.7232 31.8256L66.7642 31.6208L67.1328 31.416H67.4195L67.5015 31.5389H67.5834L67.6243 31.457L67.8701 31.3751Z" fill="#01579B"/>
<path d="M29.5729 41.4102H29.6138V41.9836L29.8186 42.1065H29.9824L30.0234 42.0655L30.5559 42.1065L31.6618 42.2703V42.3113H29.8596L29.5319 42.2294L29.4909 42.1475V41.615L29.5729 41.4102Z" fill="#01579B"/>
<path d="M43.4582 7.24985L43.663 7.37273L44.0726 7.74137L44.1954 8.15097L44.1545 8.35576L43.7449 8.56056L43.622 8.7244L43.4991 8.68344H43.581L43.663 8.47864L43.7858 8.11001L43.7449 7.70041H43.663L43.5401 7.49561L43.4582 7.41369L43.4991 7.37273L43.4172 7.29081L43.4582 7.24985Z" fill="#01579B"/>
<path d="M8.9292 13.1071L9.134 13.148L9.46167 13.3119V13.4348L8.97016 13.8034L8.5196 14.213L8.35576 14.3359H8.27384V14.254L8.47864 14.0901L8.68344 13.7624L8.76536 13.5986H8.84728V13.23L8.9292 13.1071Z" fill="#01579B"/>
<path d="M58.1217 9.134L58.3265 9.17496L58.8999 9.50263L59.1867 9.74839L59.0228 9.78935L58.818 9.83031L58.5723 9.70743L58.4084 9.50263L58.2446 9.42071L58.2036 9.54359L58.1217 9.58455V9.78935L57.9988 9.74839L57.9169 9.62551V9.37975L58.0398 9.17496L58.1217 9.134Z" fill="#01579B"/>
<path d="M60.4974 58.859H60.5793L60.4974 59.0228L58.4903 61.0298L58.1627 61.2756H58.0807V61.1937H58.1627L58.2446 61.0298L58.4903 60.825L58.8999 60.4154L59.1867 60.0878L59.3915 60.0059V59.9239H59.4734L59.5553 59.7601H59.6372V59.6782H59.7191L59.8011 59.5143L60.2516 59.1047H60.3335L60.4154 58.9409L60.4974 58.859Z" fill="#01579B"/>
<path d="M33.5869 0.0819193H34.6109V0.122879L34.2013 0.204798L33.6688 0.245758L33.5459 0.204798L33.505 0.286717H33.4231L32.6039 0.368637L32.5629 0.327677L32.1533 0.368637V0.286717L31.9895 0.204798L32.1533 0.163839L33.5869 0.0819193Z" fill="#01579B"/>
<path d="M45.67 13.6396L45.7109 13.7215L45.4242 14.213L45.0146 14.6226L44.687 14.7864H44.1545L43.9087 14.6226L43.7449 14.3768L43.7858 14.254L43.8678 14.3768V14.4997H43.9497L44.0726 14.6226L44.4822 14.6635V14.5816L44.646 14.5407L45.0146 14.3768L45.1785 14.1311L45.3833 13.9263L45.5061 13.7624L45.67 13.6396Z" fill="#01579B"/>
<path d="M28.4669 3.11293L28.6717 3.15389L29.0404 3.23581L29.3681 3.19485L29.1223 3.48157L28.8356 3.8502L28.7537 4.13692L28.6308 4.17788L28.5898 3.93212L28.7127 3.72733L28.7946 3.64541L28.7127 3.39965L28.426 3.31773H28.0983L28.2212 3.19485L28.4669 3.11293Z" fill="#01579B"/>
<path d="M67.0509 26.419L67.1328 26.5009L67.2557 26.9514V27.402L67.1738 27.5658L66.969 27.6068L66.8871 27.4429L66.8461 27.0743L66.928 26.6647H67.0099L67.0509 26.419Z" fill="#01579B"/>
<path d="M50.8719 7.08602L51.0767 7.20889L51.3224 7.57753L51.4043 7.78233L51.3634 8.06905L51.2815 8.11001L51.1586 7.90521L50.8719 7.70041L50.8309 7.45465L50.6671 7.20889L50.749 7.12698L50.8719 7.08602Z" fill="#01579B"/>
<path d="M35.7987 3.93212L36.6179 3.97308L36.8227 4.055V4.17788L36.4541 4.42364H36.3722L36.2902 4.6694L36.0854 4.8742L35.9216 4.95611L36.0035 4.75132L36.1674 4.54652L36.2902 4.2598L36.3312 4.055H35.7578L35.7987 3.93212Z" fill="#01579B"/>
<path d="M65.8221 33.5869H65.904L65.8631 34.3651L65.5764 34.9386L65.2077 35.3482L65.1668 35.2662L65.2896 35.0614L65.4125 34.9386L65.5354 34.6928L65.6583 33.9555L65.8221 33.5869Z" fill="#01579B"/>
<path d="M67.5424 22.2001L67.6653 22.323L67.952 22.9783L67.993 23.2241L67.7063 23.4699L67.5834 23.4289V22.6507L67.5424 22.2001Z" fill="#01579B"/>
<path d="M38.543 69.017L38.8707 69.2627L39.1574 69.5085L39.1164 69.6314L38.7888 69.7133H38.502L38.543 69.4675L38.4611 69.2627L38.543 69.017Z" fill="#01579B"/>
<path d="M15.5647 19.7016L15.7285 19.7835L15.9743 19.9883L16.0152 20.1931L15.7695 20.8075L15.6466 20.8484L15.6056 20.6846L15.6466 20.275L15.5647 19.7016Z" fill="#01579B"/>
<path d="M38.7478 63.7332H38.7888L38.8707 64.5114V65.0848L38.7478 65.2896L38.584 65.2077L38.7068 63.8561L38.7478 63.7332Z" fill="#01579B"/>
<path d="M19.5377 3.56349H19.6606L19.7016 3.72733H19.6197L19.4968 3.93212L19.2101 4.01404L18.9643 4.21884L18.8005 4.30076L18.6366 4.21884L18.8414 4.09596L18.9233 4.055L18.7595 3.93212L19.251 3.68637L19.5377 3.56349Z" fill="#01579B"/>
<path d="M40.1404 12.4517H40.2224L40.3452 12.6565V12.9842L40.1404 13.3119L39.9356 13.5167H39.8537L39.9356 13.1071L40.0995 12.6565L40.1404 12.4517Z" fill="#01579B"/>
<path d="M39.4032 5.40667L39.6489 5.48859L39.8537 5.65243V5.89819L39.567 6.47162L39.3622 6.71738V6.5945L39.567 6.10298V5.73435L39.4032 5.48859V5.40667Z" fill="#01579B"/>
<path d="M50.9128 66.0269L51.0357 66.0679L50.2575 66.4775L49.0696 67.0099L48.742 67.1328L48.6191 67.0919L49.1925 66.8052L49.5611 66.6823L49.9707 66.4775L50.3803 66.2317L50.6671 66.1088L50.9128 66.0269Z" fill="#01579B"/>
<path d="M18.268 4.13692L18.4318 4.21884L17.4488 4.8742L17.0802 5.07899L16.9982 5.03803L17.203 4.83324L17.8174 4.38268L18.268 4.13692Z" fill="#01579B"/>
<path d="M33.5869 51.8549L33.7507 51.9368L33.8736 52.1006V52.4693L33.5459 52.8379H33.464L33.5459 52.4693V52.0597L33.5869 51.8549Z" fill="#01579B"/>
<path d="M28.7537 39.1574L28.8765 39.1984L28.6717 39.526L28.1802 40.4272L28.0164 40.3862L28.2212 39.9766L28.3031 39.7718L28.426 39.526L28.7537 39.1574Z" fill="#01579B"/>
<path d="M40.8368 5.81627H41.1644L41.3692 5.89819V5.98011L41.1235 6.02107V6.10298L41.0006 6.14394H40.3862L40.4681 5.98011L40.8368 5.81627Z" fill="#01579B"/>
<path d="M28.3031 4.50556H28.426L28.5079 4.71036L28.4669 4.91516L28.385 5.03803H28.3031V5.11995L28.0983 5.07899L27.9345 4.91516V4.83324H28.0164V4.75132L28.3031 4.50556Z" fill="#01579B"/>
<path d="M45.0146 64.6752H45.5061L45.3423 65.0029L45.2194 65.1668L45.1375 65.4125L45.0556 65.2896L44.9737 64.8801L45.0146 64.6752Z" fill="#01579B"/>
<path d="M15.6466 16.7115H15.7285L15.8923 17.1211V17.4488L15.8514 17.5307H15.7695V17.6126L15.6056 17.6536L15.6466 17.285L15.6056 16.9163H15.6875L15.6056 16.7525L15.6466 16.7115Z" fill="#01579B"/>
<path d="M43.2943 23.7566L43.4172 23.7975V24.4939H43.3353L43.2943 24.2481L43.0895 24.1252L42.9257 24.0023L43.0486 23.8795L43.2943 23.7566Z" fill="#01579B"/>
<path d="M41.2054 69.017H41.4102L41.6559 69.1398L42.0655 69.0579H42.3932L42.3523 69.1398L41.6969 69.2627L41.3283 69.3037L41.1644 69.1808L41.2054 69.017Z" fill="#01579B"/>
<path d="M38.1334 17.8174H38.1744V18.309L38.0515 18.7185L37.8877 18.8005L37.8057 18.5547L37.8877 18.3499L38.0105 18.309L38.0925 17.8584L38.1334 17.8174Z" fill="#01579B"/>
<path d="M67.3786 30.5149L67.4605 30.5559L67.3786 30.9245H67.2967L67.2557 31.1703L67.1328 31.3341L66.928 31.2932V31.2112H66.8461L66.928 31.0474L67.1738 30.8836L67.3786 30.5149Z" fill="#01579B"/>
<path d="M50.0527 5.28379L50.1755 5.32475L50.5442 6.10298L50.6671 6.63546L50.6261 6.7993L50.5442 6.75834L50.3803 6.06202L50.2575 5.65243H50.1755L50.0527 5.28379Z" fill="#01579B"/>
<path d="M38.3382 9.70743L38.7068 9.74839L38.9526 9.91223V9.99415L38.6659 9.91223L38.584 9.87127L38.3792 9.99415H38.2563L38.2153 10.158L38.1334 10.1989V9.95319L38.2563 9.74839L38.3382 9.70743Z" fill="#01579B"/>
<path d="M42.3113 21.34L42.3523 21.4219H42.4342V21.6267L41.9836 21.9134L41.8198 21.9544L41.8607 21.7905L42.3113 21.34Z" fill="#01579B"/>
<path d="M38.584 8.15097H38.7068V8.23288L38.502 8.43768L38.6249 8.76536L38.6659 8.84728L38.4611 8.76536L38.2973 8.56056L38.2153 8.5196L38.2563 8.3148L38.584 8.15097Z" fill="#01579B"/>
<path d="M31.416 0.0819193H31.8666L31.9075 0.245758H31.1703L30.8836 0.286717L30.6378 0.245758V0.163839L31.416 0.0819193Z" fill="#01579B"/>
<path d="M32.8496 33.9146L33.0135 33.9555L33.2183 34.447V34.8157L33.0954 34.7747L32.9315 34.2013V33.9555L32.8496 33.9146Z" fill="#01579B"/>
<path d="M43.7449 2.70334H43.9906L43.9497 2.78525L43.7039 2.86717L43.4582 3.15389L43.3353 3.11293L43.2943 2.86717L43.3762 2.78525L43.7449 2.70334Z" fill="#01579B"/>
<path d="M16.8344 5.07899L16.9573 5.11995L16.7115 5.28379L16.7525 5.36571L16.3019 5.61147H16.1791L16.22 5.44763L16.5477 5.24283L16.8344 5.07899Z" fill="#01579B"/>
<path d="M45.0556 11.2639L45.3833 11.3049L45.4652 11.3458L45.4242 11.5506H45.3423L45.3013 11.7964H45.2194L45.0556 11.3868V11.2639Z" fill="#01579B"/>
<path d="M36.4131 45.0965L36.495 45.1375L36.4541 45.3423L36.1674 45.9157L36.0445 45.9977H35.9216L36.0035 45.8338L36.1264 45.7109L36.3312 45.1785L36.4131 45.0965Z" fill="#01579B"/>
<path d="M46.0386 7.49561L46.1205 7.61849L46.0796 7.82329H45.9977L46.0386 7.98713L45.9977 8.23288L45.7929 8.19193L45.8748 7.74137L46.0386 7.49561Z" fill="#01579B"/>
<path d="M37.3552 44.4822H37.6419L37.7648 44.5231V44.646L37.3142 44.687L37.1504 44.8098H36.9456L37.0275 44.687H37.1094V44.605L37.3552 44.4822Z" fill="#01579B"/>
<path d="M13.0252 11.0591L13.23 11.1001L13.4348 11.2229L13.2709 11.3049L13.0661 11.3458V11.4277L12.8613 11.5916L12.8204 11.4687L13.0252 11.0591Z" fill="#01579B"/>
<path d="M45.9157 2.17086H46.2434L46.5301 2.25278V2.3347L46.1615 2.37566L45.9567 2.3347H45.67L45.629 2.41662L45.5881 2.29374L45.9157 2.17086Z" fill="#01579B"/>
<path d="M38.6249 67.4605H38.8297L38.8707 67.6653L38.7478 68.0339H38.6249L38.584 67.7472L38.6249 67.4605Z" fill="#01579B"/>
<path d="M49.8888 66.5184L50.0117 66.6003L49.1516 66.969L48.742 67.1328L48.6191 67.0919L49.1925 66.8052L49.5611 66.6823L49.8888 66.5184Z" fill="#01579B"/>
<path d="M24.8215 37.6419H24.8625L24.9035 38.6249L24.9854 39.1164L24.9035 39.0755L24.7806 38.6249V37.7648L24.8215 37.6419Z" fill="#01579B"/>
<path d="M51.2815 11.3049L51.4453 11.3868L51.732 11.8783V12.206L51.6501 12.2469L51.5272 11.7964L51.3224 11.4687L51.2815 11.3049Z" fill="#01579B"/>
<path d="M37.9696 6.84026H38.0515L38.0925 7.12698L38.1334 7.16793H38.584L38.543 7.29081L38.2973 7.41369L38.1334 7.37273L37.9286 7.04506L37.9696 6.84026Z" fill="#01579B"/>
<path d="M41.2463 0.491516L41.615 0.532475L41.7788 0.655354V0.737273L41.6969 0.778233H41.4102L41.3283 0.737273V0.655354H41.2463V0.491516Z" fill="#01579B"/>
<path d="M66.2317 19.5377L66.3136 19.5787L66.6413 20.3569L66.6823 20.5208L66.4775 20.3569L66.2317 19.8654V19.5377Z" fill="#01579B"/>
<path d="M40.591 11.3049H40.6729L40.591 11.5097L40.2633 12.2469L40.1814 12.2879L40.2224 11.9602L40.3043 11.7554L40.4272 11.5916L40.5091 11.3868L40.591 11.3049Z" fill="#01579B"/>
<path d="M40.5091 2.86717L40.8777 2.99005V3.15389L40.632 3.27677L40.5091 3.03101V2.86717Z" fill="#01579B"/>
<path d="M17.3259 4.8742H17.4488V4.95611L16.8344 5.32475L16.6706 5.28379L16.9163 5.11995L16.9573 4.99707L17.0802 5.03803L17.3259 4.8742Z" fill="#01579B"/>
<path d="M27.7297 33.9146H28.1393L28.3441 33.9965L28.2621 34.0784L27.9754 34.1194L27.8116 34.0784L27.7297 33.9146Z" fill="#01579B"/>
<path d="M41.4102 68.0749H41.4921L41.4102 68.6483L41.3283 68.8531H41.2873V68.3207L41.4102 68.0749Z" fill="#01579B"/>
<path d="M67.6243 44.2364L67.8701 44.2774L68.0339 44.4412L68.0749 44.605L67.8701 44.4822L67.7882 44.4412H67.5834L67.5424 44.2774L67.6243 44.2364Z" fill="#01579B"/>
<path d="M39.2803 16.1791L39.4032 16.22L39.0755 16.4248L38.9526 16.4658H38.543L38.7068 16.3839L39.2803 16.1791Z" fill="#01579B"/>
<path d="M15.5237 12.9023H15.7285L15.7695 12.9432L15.7285 13.3119L15.6466 13.3938L15.5647 13.23V13.0661H15.4827L15.5237 12.9023Z" fill="#01579B"/>
<path d="M33.0135 3.11293H33.1773L33.0954 3.31773L32.8906 3.44061L32.6858 3.39965L32.7267 3.23581H32.8496L32.9725 3.19485L33.0135 3.11293Z" fill="#01579B"/>
<path d="M37.56 3.93212L37.6419 3.97308L37.519 4.21884L37.4781 5.03803L37.3961 4.8742V4.2598L37.519 3.97308L37.56 3.93212Z" fill="#01579B"/>
<path d="M69.2627 32.1533H69.3447L69.5904 32.44L69.5494 32.5629H69.4266V32.481H69.3037L69.2627 32.3991V32.1533Z" fill="#01579B"/>
<path d="M38.584 3.39965H38.8707L38.8297 3.60445L38.6659 3.64541L38.4611 3.56349V3.48157L38.584 3.39965Z" fill="#01579B"/>
<path d="M32.0304 44.605L32.1533 44.687V44.9737L32.1123 45.0965H32.0304L31.9485 44.9737L31.9895 44.646L32.0304 44.605Z" fill="#01579B"/>
<path d="M44.5641 24.2891H44.9737L45.0556 24.371L44.8098 24.4529H44.4412L44.4002 24.371H44.5641V24.2891Z" fill="#01579B"/>
<path d="M61.7671 12.3288L61.9719 12.5336L62.3406 12.9432L62.3815 13.1071L62.1767 12.9432L61.7671 12.4108V12.3288Z" fill="#01579B"/>
<path d="M37.3142 5.77531H37.3961L37.4781 6.06202L37.6009 6.10298V6.1849L37.7238 6.22586L37.6419 6.26682L37.3552 6.10298L37.2733 6.02107L37.3142 5.77531Z" fill="#01579B"/>
<path d="M43.5401 13.5576H43.622L43.7039 14.172L43.581 14.0492L43.4991 13.8034L43.5401 13.5576Z" fill="#01579B"/>
<path d="M35.3072 46.0796L35.6758 46.1205L35.6349 46.2844L35.512 46.3253L35.3072 46.1205V46.0796Z" fill="#01579B"/>
<path d="M25.5998 42.1065H25.8046L25.6407 42.2703H25.2311L25.313 42.1884L25.5998 42.1065Z" fill="#01579B"/>
<path d="M36.8637 16.7934L36.9046 16.9163L36.8227 17.244V17.4898H36.7408L36.6998 17.1211L36.8637 16.7934Z" fill="#01579B"/>
<path d="M33.5869 2.66238H33.7917L33.5869 2.82621L33.3821 2.94909L33.2592 2.90813L33.3821 2.78525H33.464L33.505 2.70334L33.5869 2.66238Z" fill="#01579B"/>
<path d="M69.6723 30.8426L69.7542 30.9655L69.7952 31.1703V31.5389L69.7133 31.457L69.6723 31.1293V30.8426Z" fill="#01579B"/>
<path d="M32.7677 6.30778H33.0954L33.3821 6.34874V6.3897L32.9315 6.47162L32.7677 6.3897V6.30778Z" fill="#01579B"/>
<path d="M42.0655 69.0579H42.3932L42.3523 69.1398L41.9836 69.2218L41.8198 69.1808L42.0655 69.0579Z" fill="#01579B"/>
<path d="M36.1674 45.5881H36.2083V45.8338L36.0445 45.9977H35.9216L36.0035 45.8338L36.1264 45.7109L36.1674 45.5881Z" fill="#01579B"/>
<path d="M15.6875 14.5407L15.7695 14.6226V15.1141L15.6466 15.1551L15.6875 14.5407Z" fill="#01579B"/>
<path d="M29.5729 41.4102H29.6138V41.8607L29.4909 41.9017V41.615L29.5729 41.4102Z" fill="#01579B"/>
<path d="M68.0749 45.5881H68.1568L68.1159 45.9567H67.993V45.7109L68.0749 45.5881Z" fill="#01579B"/>
<path d="M24.4939 42.1475H24.7806L25.1492 42.2294L24.9854 42.3113L24.6987 42.2703L24.4939 42.1884V42.1475Z" fill="#01579B"/>
<path d="M30.5968 33.4231H31.0884V33.505L30.7197 33.5459L30.5968 33.4231Z" fill="#01579B"/>
<path d="M16.3019 5.36571L16.4658 5.40667L16.4248 5.57051L16.1791 5.61147L16.22 5.44763L16.3019 5.36571Z" fill="#01579B"/>
<path d="M37.7238 19.0872H37.8057L37.7648 19.251L37.7238 19.292L37.3961 19.251L37.3552 19.1691H37.6419L37.7238 19.0872Z" fill="#01579B"/>
<path d="M44.0316 5.20187L44.1135 5.28379L44.1545 5.44763L44.1135 5.52955H44.1954V5.61147L44.0316 5.57051L43.9906 5.32475L44.0316 5.20187Z" fill="#01579B"/>
<path d="M41.8198 0.696314L42.0655 0.778233L41.9836 0.819193L41.7788 0.778233L41.8198 0.696314Z" fill="#01579B"/>
<path d="M92.128 40.288C90.6347 40.288 89.3867 39.968 88.384 39.328C87.4027 38.688 86.656 37.8027 86.144 36.672C85.632 35.5413 85.3333 34.2293 85.248 32.736L88.448 31.872C88.512 32.7893 88.6507 33.6747 88.864 34.528C89.0987 35.3813 89.472 36.0853 89.984 36.64C90.496 37.1733 91.2107 37.44 92.128 37.44C93.0667 37.44 93.7707 37.184 94.24 36.672C94.7307 36.1387 94.976 35.3813 94.976 34.4C94.976 33.2267 94.7093 32.288 94.176 31.584C93.6427 30.8587 92.9707 30.1333 92.16 29.408L87.808 25.568C86.9547 24.8213 86.3253 24.0107 85.92 23.136C85.5147 22.24 85.312 21.1413 85.312 19.84C85.312 17.9413 85.856 16.4693 86.944 15.424C88.032 14.3787 89.5147 13.856 91.392 13.856C92.416 13.856 93.312 13.9947 94.08 14.272C94.8693 14.528 95.52 14.9333 96.032 15.488C96.5653 16.0427 96.9813 16.7467 97.28 17.6C97.6 18.432 97.8133 19.4133 97.92 20.544L94.848 21.376C94.784 20.5227 94.656 19.744 94.464 19.04C94.272 18.3147 93.9307 17.7387 93.44 17.312C92.9707 16.864 92.288 16.64 91.392 16.64C90.496 16.64 89.792 16.8853 89.28 17.376C88.7893 17.8453 88.544 18.5493 88.544 19.488C88.544 20.2773 88.672 20.928 88.928 21.44C89.2053 21.952 89.6427 22.4747 90.24 23.008L94.624 26.848C95.6053 27.7013 96.4693 28.7253 97.216 29.92C97.9627 31.0933 98.336 32.4907 98.336 34.112C98.336 35.392 98.0693 36.5013 97.536 37.44C97.0027 38.3573 96.2667 39.0613 95.328 39.552C94.4107 40.0427 93.344 40.288 92.128 40.288Z" fill="#212121"/>
<path d="M100.853 46.08V21.504H104.277V22.976C104.682 22.5067 105.173 22.1013 105.749 21.76C106.325 21.4187 107.008 21.248 107.797 21.248C108.757 21.248 109.514 21.504 110.069 22.016C110.645 22.5067 111.072 23.136 111.349 23.904C111.626 24.6507 111.808 25.4187 111.893 26.208C111.978 26.976 112.021 27.6373 112.021 28.192V32.672C112.021 33.9733 111.893 35.2107 111.637 36.384C111.381 37.536 110.912 38.4747 110.229 39.2C109.568 39.904 108.629 40.256 107.413 40.256C106.752 40.256 106.165 40.096 105.653 39.776C105.141 39.4347 104.682 39.0507 104.277 38.624V46.08H100.853ZM106.741 37.568C107.338 37.568 107.765 37.3547 108.021 36.928C108.277 36.48 108.437 35.8827 108.501 35.136C108.565 34.3893 108.597 33.568 108.597 32.672V28.192C108.597 27.424 108.554 26.72 108.469 26.08C108.384 25.4187 108.202 24.896 107.925 24.512C107.648 24.128 107.21 23.936 106.613 23.936C106.165 23.936 105.738 24.032 105.333 24.224C104.928 24.416 104.576 24.64 104.277 24.896V36.736C104.597 36.9707 104.96 37.1733 105.365 37.344C105.77 37.4933 106.229 37.568 106.741 37.568Z" fill="#212121"/>
<path d="M115.23 40V21.504H118.654V24.128C119.337 22.9973 120.02 22.24 120.702 21.856C121.385 21.472 122.068 21.28 122.75 21.28C122.836 21.28 122.91 21.28 122.974 21.28C123.06 21.28 123.166 21.2907 123.294 21.312V25.088C123.038 24.9813 122.74 24.896 122.398 24.832C122.078 24.7467 121.748 24.704 121.406 24.704C120.873 24.704 120.382 24.832 119.934 25.088C119.508 25.3227 119.081 25.792 118.654 26.496V40H115.23Z" fill="#212121"/>
<path d="M127.918 40.256C127.193 40.256 126.553 40.0533 125.998 39.648C125.444 39.2213 125.006 38.688 124.686 38.048C124.366 37.3867 124.206 36.6933 124.206 35.968C124.206 34.816 124.398 33.8453 124.782 33.056C125.166 32.2667 125.689 31.6053 126.35 31.072C127.033 30.5173 127.812 30.0373 128.686 29.632C129.582 29.2267 130.521 28.832 131.502 28.448V27.136C131.502 26.3893 131.46 25.7707 131.374 25.28C131.289 24.7893 131.108 24.4267 130.83 24.192C130.574 23.936 130.18 23.808 129.646 23.808C129.177 23.808 128.793 23.9147 128.494 24.128C128.217 24.3413 128.014 24.6507 127.886 25.056C127.758 25.44 127.694 25.8987 127.694 26.432V27.36L124.302 27.232C124.345 25.184 124.814 23.68 125.71 22.72C126.606 21.7387 127.993 21.248 129.87 21.248C131.705 21.248 133.006 21.7493 133.774 22.752C134.542 23.7547 134.926 25.2053 134.926 27.104V35.552C134.926 36.128 134.937 36.6827 134.958 37.216C135.001 37.7493 135.044 38.2507 135.086 38.72C135.15 39.168 135.204 39.5947 135.246 40H132.11C132.046 39.6587 131.961 39.232 131.854 38.72C131.769 38.1867 131.705 37.7067 131.662 37.28C131.449 38.0053 131.033 38.688 130.414 39.328C129.817 39.9467 128.985 40.256 127.918 40.256ZM129.262 37.312C129.604 37.312 129.924 37.216 130.222 37.024C130.521 36.832 130.788 36.6187 131.022 36.384C131.257 36.128 131.417 35.9253 131.502 35.776V30.528C130.969 30.8267 130.468 31.1253 129.998 31.424C129.529 31.7227 129.113 32.0427 128.75 32.384C128.409 32.704 128.132 33.0773 127.918 33.504C127.726 33.9093 127.63 34.3787 127.63 34.912C127.63 35.6587 127.769 36.2453 128.046 36.672C128.324 37.0987 128.729 37.312 129.262 37.312Z" fill="#212121"/>
<path d="M143.284 40.256C141.769 40.256 140.617 39.9573 139.828 39.36C139.06 38.7413 138.537 37.8773 138.26 36.768C138.004 35.6587 137.876 34.368 137.876 32.896V28.64C137.876 27.0827 138.015 25.76 138.292 24.672C138.569 23.5627 139.092 22.72 139.86 22.144C140.649 21.5467 141.791 21.248 143.284 21.248C144.628 21.248 145.663 21.472 146.388 21.92C147.135 22.3467 147.647 22.9973 147.924 23.872C148.201 24.7253 148.34 25.792 148.34 27.072V28.16H145.236V27.04C145.236 26.2293 145.183 25.5893 145.076 25.12C144.969 24.6507 144.777 24.3093 144.5 24.096C144.223 23.8827 143.828 23.776 143.316 23.776C142.761 23.776 142.335 23.904 142.036 24.16C141.737 24.416 141.535 24.8533 141.428 25.472C141.343 26.0693 141.3 26.8907 141.3 27.936V33.76C141.3 35.3387 141.449 36.3947 141.748 36.928C142.047 37.4613 142.58 37.728 143.348 37.728C143.924 37.728 144.34 37.6 144.596 37.344C144.873 37.0667 145.044 36.6827 145.108 36.192C145.193 35.7013 145.236 35.1467 145.236 34.528V33.024H148.34V34.304C148.34 35.5413 148.191 36.608 147.892 37.504C147.615 38.4 147.103 39.0827 146.356 39.552C145.631 40.0213 144.607 40.256 143.284 40.256Z" fill="#212121"/>
<path d="M151.48 40V14.08H154.904V23.424C155.523 22.8267 156.216 22.3147 156.984 21.888C157.752 21.4613 158.606 21.248 159.544 21.248C160.27 21.248 160.824 21.44 161.208 21.824C161.614 22.208 161.891 22.688 162.04 23.264C162.211 23.84 162.296 24.4267 162.296 25.024V40H158.872V26.016C158.872 25.3547 158.776 24.8427 158.584 24.48C158.392 24.1173 157.998 23.936 157.4 23.936C156.995 23.936 156.568 24.0533 156.12 24.288C155.694 24.5227 155.288 24.8107 154.904 25.152V40H151.48Z" fill="#212121"/>
<path d="M172.034 40.288C170.541 40.288 169.293 39.968 168.29 39.328C167.309 38.688 166.562 37.8027 166.05 36.672C165.538 35.5413 165.24 34.2293 165.154 32.736L168.354 31.872C168.418 32.7893 168.557 33.6747 168.77 34.528C169.005 35.3813 169.378 36.0853 169.89 36.64C170.402 37.1733 171.117 37.44 172.034 37.44C172.973 37.44 173.677 37.184 174.146 36.672C174.637 36.1387 174.882 35.3813 174.882 34.4C174.882 33.2267 174.616 32.288 174.082 31.584C173.549 30.8587 172.877 30.1333 172.066 29.408L167.714 25.568C166.861 24.8213 166.232 24.0107 165.826 23.136C165.421 22.24 165.218 21.1413 165.218 19.84C165.218 17.9413 165.762 16.4693 166.85 15.424C167.938 14.3787 169.421 13.856 171.298 13.856C172.322 13.856 173.218 13.9947 173.986 14.272C174.776 14.528 175.426 14.9333 175.938 15.488C176.472 16.0427 176.888 16.7467 177.186 17.6C177.506 18.432 177.72 19.4133 177.826 20.544L174.754 21.376C174.69 20.5227 174.562 19.744 174.37 19.04C174.178 18.3147 173.837 17.7387 173.346 17.312C172.877 16.864 172.194 16.64 171.298 16.64C170.402 16.64 169.698 16.8853 169.186 17.376C168.696 17.8453 168.45 18.5493 168.45 19.488C168.45 20.2773 168.578 20.928 168.834 21.44C169.112 21.952 169.549 22.4747 170.146 23.008L174.53 26.848C175.512 27.7013 176.376 28.7253 177.122 29.92C177.869 31.0933 178.242 32.4907 178.242 34.112C178.242 35.392 177.976 36.5013 177.442 37.44C176.909 38.3573 176.173 39.0613 175.234 39.552C174.317 40.0427 173.25 40.288 172.034 40.288Z" fill="#212121"/>
<path d="M180.759 46.08V21.504H184.183V22.976C184.589 22.5067 185.079 22.1013 185.655 21.76C186.231 21.4187 186.914 21.248 187.703 21.248C188.663 21.248 189.421 21.504 189.975 22.016C190.551 22.5067 190.978 23.136 191.255 23.904C191.533 24.6507 191.714 25.4187 191.799 26.208C191.885 26.976 191.927 27.6373 191.927 28.192V32.672C191.927 33.9733 191.799 35.2107 191.543 36.384C191.287 37.536 190.818 38.4747 190.135 39.2C189.474 39.904 188.535 40.256 187.319 40.256C186.658 40.256 186.071 40.096 185.559 39.776C185.047 39.4347 184.589 39.0507 184.183 38.624V46.08H180.759ZM186.647 37.568C187.245 37.568 187.671 37.3547 187.927 36.928C188.183 36.48 188.343 35.8827 188.407 35.136C188.471 34.3893 188.503 33.568 188.503 32.672V28.192C188.503 27.424 188.461 26.72 188.375 26.08C188.29 25.4187 188.109 24.896 187.831 24.512C187.554 24.128 187.117 23.936 186.519 23.936C186.071 23.936 185.645 24.032 185.239 24.224C184.834 24.416 184.482 24.64 184.183 24.896V36.736C184.503 36.9707 184.866 37.1733 185.271 37.344C185.677 37.4933 186.135 37.568 186.647 37.568Z" fill="#212121"/>
<path d="M197.824 40.256C197.099 40.256 196.459 40.0533 195.904 39.648C195.35 39.2213 194.912 38.688 194.592 38.048C194.272 37.3867 194.113 36.6933 194.113 35.968C194.113 34.816 194.305 33.8453 194.689 33.056C195.073 32.2667 195.595 31.6053 196.257 31.072C196.939 30.5173 197.718 30.0373 198.592 29.632C199.488 29.2267 200.427 28.832 201.409 28.448V27.136C201.409 26.3893 201.366 25.7707 201.281 25.28C201.195 24.7893 201.014 24.4267 200.736 24.192C200.48 23.936 200.086 23.808 199.553 23.808C199.083 23.808 198.699 23.9147 198.4 24.128C198.123 24.3413 197.92 24.6507 197.792 25.056C197.664 25.44 197.6 25.8987 197.6 26.432V27.36L194.208 27.232C194.251 25.184 194.721 23.68 195.617 22.72C196.513 21.7387 197.899 21.248 199.777 21.248C201.611 21.248 202.912 21.7493 203.68 22.752C204.448 23.7547 204.833 25.2053 204.833 27.104V35.552C204.833 36.128 204.843 36.6827 204.865 37.216C204.907 37.7493 204.95 38.2507 204.992 38.72C205.056 39.168 205.11 39.5947 205.152 40H202.016C201.952 39.6587 201.867 39.232 201.76 38.72C201.675 38.1867 201.611 37.7067 201.568 37.28C201.355 38.0053 200.939 38.688 200.32 39.328C199.723 39.9467 198.891 40.256 197.824 40.256ZM199.169 37.312C199.51 37.312 199.83 37.216 200.128 37.024C200.427 36.832 200.694 36.6187 200.928 36.384C201.163 36.128 201.323 35.9253 201.409 35.776V30.528C200.875 30.8267 200.374 31.1253 199.904 31.424C199.435 31.7227 199.019 32.0427 198.656 32.384C198.315 32.704 198.038 33.0773 197.824 33.504C197.632 33.9093 197.536 34.3787 197.536 34.912C197.536 35.6587 197.675 36.2453 197.952 36.672C198.23 37.0987 198.635 37.312 199.169 37.312Z" fill="#212121"/>
<path d="M213.19 40.256C211.676 40.256 210.524 39.9573 209.734 39.36C208.966 38.7413 208.444 37.8773 208.166 36.768C207.91 35.6587 207.782 34.368 207.782 32.896V28.64C207.782 27.0827 207.921 25.76 208.198 24.672C208.476 23.5627 208.998 22.72 209.766 22.144C210.556 21.5467 211.697 21.248 213.19 21.248C214.534 21.248 215.569 21.472 216.294 21.92C217.041 22.3467 217.553 22.9973 217.83 23.872C218.108 24.7253 218.246 25.792 218.246 27.072V28.16H215.142V27.04C215.142 26.2293 215.089 25.5893 214.982 25.12C214.876 24.6507 214.684 24.3093 214.406 24.096C214.129 23.8827 213.734 23.776 213.222 23.776C212.668 23.776 212.241 23.904 211.942 24.16C211.644 24.416 211.441 24.8533 211.334 25.472C211.249 26.0693 211.206 26.8907 211.206 27.936V33.76C211.206 35.3387 211.356 36.3947 211.654 36.928C211.953 37.4613 212.486 37.728 213.254 37.728C213.83 37.728 214.246 37.6 214.502 37.344C214.78 37.0667 214.95 36.6827 215.014 36.192C215.1 35.7013 215.142 35.1467 215.142 34.528V33.024H218.246V34.304C218.246 35.5413 218.097 36.608 217.798 37.504C217.521 38.4 217.009 39.0827 216.262 39.552C215.537 40.0213 214.513 40.256 213.19 40.256Z" fill="#212121"/>
<path d="M226.254 40.256C224.804 40.256 223.684 39.9787 222.894 39.424C222.105 38.848 221.55 38.016 221.23 36.928C220.932 35.8187 220.782 34.464 220.782 32.864V28.64C220.782 26.9973 220.942 25.632 221.262 24.544C221.582 23.456 222.137 22.6347 222.926 22.08C223.737 21.5253 224.846 21.248 226.254 21.248C227.812 21.248 228.953 21.568 229.678 22.208C230.425 22.848 230.916 23.776 231.15 24.992C231.385 26.1867 231.502 27.6267 231.502 29.312V30.816H224.206V34.528C224.206 35.2747 224.27 35.8827 224.398 36.352C224.548 36.8213 224.772 37.1733 225.07 37.408C225.39 37.6213 225.796 37.728 226.286 37.728C226.798 37.728 227.182 37.6107 227.438 37.376C227.716 37.12 227.897 36.768 227.982 36.32C228.089 35.8507 228.142 35.3067 228.142 34.688V33.568H231.47V34.272C231.47 36.128 231.076 37.5893 230.286 38.656C229.497 39.7227 228.153 40.256 226.254 40.256ZM224.206 28.96H228.142V27.296C228.142 26.528 228.1 25.888 228.014 25.376C227.929 24.8427 227.748 24.448 227.47 24.192C227.214 23.9147 226.798 23.776 226.222 23.776C225.668 23.776 225.241 23.904 224.942 24.16C224.665 24.416 224.473 24.8533 224.366 25.472C224.26 26.0693 224.206 26.9013 224.206 27.968V28.96Z" fill="#212121"/>
<path d="M88.522 67.153C87.5473 67.153 86.788 66.949 86.244 66.541C85.7113 66.133 85.3373 65.5833 85.122 64.892C84.918 64.2007 84.816 63.43 84.816 62.58V57.718C84.816 56.7887 84.918 55.9783 85.122 55.287C85.3373 54.5957 85.7113 54.063 86.244 53.689C86.788 53.3037 87.5473 53.111 88.522 53.111C89.3833 53.111 90.0633 53.2697 90.562 53.587C91.072 53.9043 91.4347 54.3577 91.65 54.947C91.8767 55.5363 91.99 56.2447 91.99 57.072V58.16H90.171V57.191C90.171 56.681 90.1427 56.2333 90.086 55.848C90.0407 55.4513 89.9047 55.1453 89.678 54.93C89.4513 54.7147 89.0717 54.607 88.539 54.607C87.995 54.607 87.5983 54.726 87.349 54.964C87.0997 55.1907 86.9353 55.5193 86.856 55.95C86.788 56.3693 86.754 56.8623 86.754 57.429V62.886C86.754 63.5773 86.8107 64.127 86.924 64.535C87.0373 64.9317 87.2243 65.215 87.485 65.385C87.7457 65.555 88.097 65.64 88.539 65.64C89.0603 65.64 89.4343 65.5267 89.661 65.3C89.8877 65.062 90.0293 64.739 90.086 64.331C90.1427 63.923 90.171 63.447 90.171 62.903V61.883H91.99V62.903C91.99 63.7417 91.888 64.484 91.684 65.13C91.48 65.7647 91.1287 66.2633 90.63 66.626C90.1313 66.9773 89.4287 67.153 88.522 67.153Z" fill="#212121"/>
<path d="M97.339 67.153C96.4097 67.153 95.6674 66.9717 95.112 66.609C94.5567 66.2463 94.16 65.7307 93.922 65.062C93.684 64.382 93.565 63.5887 93.565 62.682V57.463C93.565 56.5563 93.684 55.78 93.922 55.134C94.1714 54.4767 94.568 53.978 95.112 53.638C95.6674 53.2867 96.4097 53.111 97.339 53.111C98.2684 53.111 99.005 53.2867 99.549 53.638C100.093 53.9893 100.484 54.488 100.722 55.134C100.971 55.78 101.096 56.5563 101.096 57.463V62.699C101.096 63.5943 100.971 64.3763 100.722 65.045C100.484 65.7137 100.093 66.235 99.549 66.609C99.005 66.9717 98.2684 67.153 97.339 67.153ZM97.339 65.64C97.849 65.64 98.2344 65.538 98.495 65.334C98.7557 65.1187 98.9314 64.824 99.022 64.45C99.1127 64.0647 99.158 63.617 99.158 63.107V57.072C99.158 56.562 99.1127 56.1257 99.022 55.763C98.9314 55.389 98.7557 55.1057 98.495 54.913C98.2344 54.709 97.849 54.607 97.339 54.607C96.829 54.607 96.438 54.709 96.166 54.913C95.9054 55.1057 95.7297 55.389 95.639 55.763C95.5484 56.1257 95.503 56.562 95.503 57.072V63.107C95.503 63.617 95.5484 64.0647 95.639 64.45C95.7297 64.824 95.9054 65.1187 96.166 65.334C96.438 65.538 96.829 65.64 97.339 65.64Z" fill="#212121"/>
<path d="M102.984 67V53.23H104.293L108.203 62.376V53.23H109.801V67H108.577L104.616 57.599V67H102.984Z" fill="#212121"/>
<path d="M111.966 67V53.23H113.275L117.185 62.376V53.23H118.783V67H117.559L113.598 57.599V67H111.966Z" fill="#212121"/>
<path d="M120.947 67V53.23H126.285V54.658H122.868V59.214H125.639V60.574H122.868V65.623H126.319V67H120.947Z" fill="#212121"/>
<path d="M131.321 67.153C130.346 67.153 129.587 66.949 129.043 66.541C128.51 66.133 128.136 65.5833 127.921 64.892C127.717 64.2007 127.615 63.43 127.615 62.58V57.718C127.615 56.7887 127.717 55.9783 127.921 55.287C128.136 54.5957 128.51 54.063 129.043 53.689C129.587 53.3037 130.346 53.111 131.321 53.111C132.182 53.111 132.862 53.2697 133.361 53.587C133.871 53.9043 134.233 54.3577 134.449 54.947C134.675 55.5363 134.789 56.2447 134.789 57.072V58.16H132.97V57.191C132.97 56.681 132.941 56.2333 132.885 55.848C132.839 55.4513 132.703 55.1453 132.477 54.93C132.25 54.7147 131.87 54.607 131.338 54.607C130.794 54.607 130.397 54.726 130.148 54.964C129.898 55.1907 129.734 55.5193 129.655 55.95C129.587 56.3693 129.553 56.8623 129.553 57.429V62.886C129.553 63.5773 129.609 64.127 129.723 64.535C129.836 64.9317 130.023 65.215 130.284 65.385C130.544 65.555 130.896 65.64 131.338 65.64C131.859 65.64 132.233 65.5267 132.46 65.3C132.686 65.062 132.828 64.739 132.885 64.331C132.941 63.923 132.97 63.447 132.97 62.903V61.883H134.789V62.903C134.789 63.7417 134.687 64.484 134.483 65.13C134.279 65.7647 133.927 66.2633 133.429 66.626C132.93 66.9773 132.227 67.153 131.321 67.153Z" fill="#212121"/>
<path d="M138.132 67V54.658H135.803V53.23H142.314V54.658H140.053V67H138.132Z" fill="#212121"/>
<path d="M142.643 69.227L142.354 68.445C142.66 68.343 142.898 68.1617 143.068 67.901C143.249 67.6517 143.34 67.3513 143.34 67H142.371V65.045H144.241V66.966C144.241 67.5667 144.11 68.0427 143.85 68.394C143.589 68.7567 143.187 69.0343 142.643 69.227Z" fill="#212121"/>
<path d="M153.047 67.153C152.254 67.153 151.591 66.983 151.058 66.643C150.537 66.303 150.14 65.8327 149.868 65.232C149.596 64.6313 149.438 63.9343 149.392 63.141L151.092 62.682C151.126 63.1693 151.2 63.6397 151.313 64.093C151.438 64.5463 151.636 64.9203 151.908 65.215C152.18 65.4983 152.56 65.64 153.047 65.64C153.546 65.64 153.92 65.504 154.169 65.232C154.43 64.9487 154.56 64.5463 154.56 64.025C154.56 63.4017 154.419 62.903 154.135 62.529C153.852 62.1437 153.495 61.7583 153.064 61.373L150.752 59.333C150.299 58.9363 149.965 58.5057 149.749 58.041C149.534 57.565 149.426 56.9813 149.426 56.29C149.426 55.2813 149.715 54.4993 150.293 53.944C150.871 53.3887 151.659 53.111 152.656 53.111C153.2 53.111 153.676 53.1847 154.084 53.332C154.504 53.468 154.849 53.6833 155.121 53.978C155.405 54.2727 155.626 54.6467 155.785 55.1C155.954 55.542 156.068 56.0633 156.124 56.664L154.492 57.106C154.458 56.6527 154.39 56.239 154.288 55.865C154.186 55.4797 154.005 55.1737 153.744 54.947C153.495 54.709 153.132 54.59 152.656 54.59C152.18 54.59 151.806 54.7203 151.534 54.981C151.274 55.2303 151.143 55.6043 151.143 56.103C151.143 56.5223 151.211 56.868 151.347 57.14C151.495 57.412 151.727 57.6897 152.044 57.973L154.373 60.013C154.895 60.4663 155.354 61.0103 155.75 61.645C156.147 62.2683 156.345 63.0107 156.345 63.872C156.345 64.552 156.204 65.1413 155.92 65.64C155.637 66.1273 155.246 66.5013 154.747 66.762C154.26 67.0227 153.693 67.153 153.047 67.153Z" fill="#212121"/>
<path d="M157.836 67V53.23H161.253C162.08 53.23 162.737 53.383 163.225 53.689C163.723 53.9837 164.086 54.4143 164.313 54.981C164.539 55.5477 164.653 56.2333 164.653 57.038C164.653 57.7633 164.522 58.3923 164.262 58.925C164.012 59.4577 163.638 59.8713 163.14 60.166C162.641 60.4493 162.018 60.591 161.27 60.591H159.757V67H157.836ZM159.757 59.214H160.641C161.196 59.214 161.632 59.1517 161.95 59.027C162.267 58.9023 162.494 58.687 162.63 58.381C162.766 58.0637 162.834 57.6217 162.834 57.055C162.834 56.3977 162.783 55.8933 162.681 55.542C162.59 55.1907 162.392 54.947 162.086 54.811C161.78 54.675 161.304 54.607 160.658 54.607H159.757V59.214Z" fill="#212121"/>
<path d="M166.004 67V53.23H171.342V54.658H167.925V59.214H170.696V60.574H167.925V65.623H171.376V67H166.004Z" fill="#212121"/>
<path d="M172.178 67L175.102 53.23H176.955L179.896 67H178.077L177.448 63.532H174.643L173.98 67H172.178ZM174.898 62.155H177.193L176.037 55.95L174.898 62.155Z" fill="#212121"/>
<path d="M181.294 67V53.23H183.215V59.724L186.377 53.23H188.162L185.442 59.299L188.604 67H186.734L184.099 60.54L183.215 62.138V67H181.294Z" fill="#212121"/>
<path d="M189.609 69.227L189.32 68.445C189.626 68.343 189.864 68.1617 190.034 67.901C190.215 67.6517 190.306 67.3513 190.306 67H189.337V65.045H191.207V66.966C191.207 67.5667 191.076 68.0427 190.816 68.394C190.555 68.7567 190.153 69.0343 189.609 69.227Z" fill="#212121"/>
<path d="M196.766 67V53.23H198.687V65.623H202.206V67H196.766Z" fill="#212121"/>
<path d="M203.523 67V53.23H208.861V54.658H205.444V59.214H208.215V60.574H205.444V65.623H208.895V67H203.523Z" fill="#212121"/>
<path d="M209.698 67L212.622 53.23H214.475L217.416 67H215.597L214.968 63.532H212.163L211.5 67H209.698ZM212.418 62.155H214.713L213.557 55.95L212.418 62.155Z" fill="#212121"/>
<path d="M218.813 67V53.23H221.584C222.502 53.23 223.262 53.3547 223.862 53.604C224.463 53.842 224.905 54.233 225.188 54.777C225.483 55.3097 225.63 56.0123 225.63 56.885C225.63 57.4177 225.574 57.905 225.46 58.347C225.347 58.7777 225.166 59.146 224.916 59.452C224.667 59.7467 224.338 59.962 223.93 60.098L225.885 67H224.032L222.23 60.54H220.734V67H218.813ZM220.734 59.163H221.465C222.009 59.163 222.451 59.095 222.791 58.959C223.131 58.823 223.381 58.5907 223.539 58.262C223.698 57.9333 223.777 57.4743 223.777 56.885C223.777 56.0803 223.63 55.5023 223.335 55.151C223.041 54.7883 222.457 54.607 221.584 54.607H220.734V59.163Z" fill="#212121"/>
<path d="M227.629 67V53.23H228.938L232.848 62.376V53.23H234.446V67H233.222L229.261 57.599V67H227.629Z" fill="#212121"/>
</svg>
